<?xml version="1.0" encoding="UTF-8" standalone="no"?>
<svg
   version="1.1"
   viewBox="0 0 399.99997 300"
   fill="none"
   stroke="none"
   stroke-linecap="square"
   stroke-miterlimit="10"
   id="svg12"
   xml:space="preserve"
   width="400"
   height="300"
   sodipodi:docname="card-back.svg"
   inkscape:version="1.4.3 (0d15f75, 2025-12-25)"
   xmlns:inkscape="http://www.inkscape.org/namespaces/inkscape"
   xmlns:sodipodi="http://sodipodi.sourceforge.net/DTD/sodipodi-0.dtd"
   xmlns="http://www.w3.org/2000/svg"
   xmlns:svg="http://www.w3.org/2000/svg"><sodipodi:namedview
     id="namedview1"
     pagecolor="#ffffff"
     bordercolor="#000000"
     borderopacity="0.25"
     inkscape:showpageshadow="2"
     inkscape:pageopacity="0.0"
     inkscape:pagecheckerboard="0"
     inkscape:deskcolor="#d1d1d1"
     inkscape:zoom="1.4326241"
     inkscape:cx="172.41089"
     inkscape:cy="127.0396"
     inkscape:window-width="1168"
     inkscape:window-height="1002"
     inkscape:window-x="-5"
     inkscape:window-y="0"
     inkscape:window-maximized="0"
     inkscape:current-layer="svg12" /><defs
     id="defs12" /><clipPath
     id="p.0"><path
       d="M 0,0 H 521.50134 V 168 H 0 Z"
       clip-rule="nonzero"
       id="path1" /></clipPath><circle
     style="fill:#d4e0e3;fill-opacity:1;stroke:#e03513;stroke-width:8.91089;stroke-miterlimit:2;stroke-dasharray:none;stroke-opacity:1;paint-order:fill markers stroke;opacity:0.25"
     id="path24"
     cx="200"
     cy="150"
     r="121.18812" /><path
     id="path19"
     style="fill:#134f5c;fill-opacity:1;stroke:none;stroke-width:1.78218;stroke-miterlimit:2;stroke-dasharray:none;paint-order:fill markers stroke;opacity:0.25"
     d="m 199.99843,59.317759 c -1.7658,0 -3.53055,0.283455 -4.88359,0.852808 L 96.858343,101.51572 c -2.706095,1.13868 -2.706095,2.97215 0,4.11084 l 13.895407,5.84777 -6.55784,41.24071 a 2.1947667,2.1947667 0 0 0 2.16854,2.541 h 17.35536 a 2.1947667,2.1947667 0 0 0 2.16507,-2.541 l -5.94177,-37.377 16.9133,7.11827 v 12.81288 a 63.144182,34.085172 0 0 0 1.55593,7.09043 c -5.49249,10.00556 -8.62198,21.48422 -8.62198,33.68734 0,38.72968 31.4784,70.20808 70.20807,70.20808 38.72967,0 70.21153,-31.4784 70.21153,-70.20808 0,-12.13472 -3.0927,-23.55432 -8.52799,-33.52026 a 63.144182,34.085172 0 0 0 1.46194,-7.25751 v -12.81288 l 39.99458,-16.82975 c 2.70609,-1.13869 2.70609,-2.97216 0,-4.11084 l -98.253,-41.345153 c -1.35303,-0.569353 -3.12126,-0.852808 -4.88706,-0.852808 z m -56.96706,91.468911 c 0.47518,0.21415 0.96667,0.39654 1.44455,0.60566 a 63.144182,34.085172 0 0 0 25.32642,13.74227 c -0.38912,3.58697 -0.61959,7.22042 -0.61959,10.91236 0,5.50679 0.47829,10.89756 1.29835,16.17186 -9.5652,2.07128 -18.73443,5.15991 -27.44973,9.08842 -3.42862,-7.72701 -5.38481,-16.25056 -5.38481,-25.26028 0,-9.00971 1.95619,-17.53328 5.38481,-25.26029 z m 113.94105,0.004 c 3.42703,7.72544 5.38134,16.2495 5.38134,25.25681 0,9.00807 -1.9539,17.53439 -5.38134,25.26027 -8.71636,-3.92678 -17.88802,-7.01729 -27.45319,-9.08841 0.82007,-5.27428 1.29836,-10.66507 1.29836,-16.17186 0,-3.67047 -0.22778,-7.28299 -0.61263,-10.8497 a 63.144182,34.085172 0 0 0 25.46216,-13.85715 c 0.43175,-0.18936 0.87575,-0.35651 1.3053,-0.54996 z m -79.47051,16.23104 a 63.144182,34.085172 0 0 0 22.49652,2.33563 63.144182,34.085172 0 0 0 22.50695,-2.25208 c 0.28478,2.94517 0.45948,5.92223 0.45948,8.94222 0,5.01578 -0.43141,9.92515 -1.16608,14.73778 -7.10645,-1.12256 -14.37515,-1.77523 -21.80035,-1.77523 -7.42519,0 -14.6904,0.65267 -21.79688,1.77523 -0.73468,-4.81263 -1.16607,-9.722 -1.16607,-14.73778 0,-3.04852 0.17661,-6.05345 0.46643,-9.02577 z m 22.49652,29.84454 c 6.89789,0 13.65229,0.599 20.26531,1.62552 -3.53358,14.93399 -10.47113,28.52676 -20.01122,39.90409 -0.0788,0.002 -0.18359,0.007 -0.25409,0.007 -0.0706,0 -0.17198,-0.005 -0.25063,-0.007 -9.54007,-11.37733 -16.47762,-24.9701 -20.0112,-39.90409 6.61304,-1.02652 13.36393,-1.62552 20.26183,-1.62552 z m -27.99622,3.05267 c 3.20844,13.74585 9.19823,26.36464 17.22308,37.43617 -18.05724,-3.14938 -33.40615,-13.98308 -42.54601,-29.08918 8.05539,-3.59141 16.51166,-6.43241 25.32293,-8.34699 z m 55.99592,0 c 8.8118,1.91436 17.26984,4.75091 25.32639,8.34002 -9.1391,15.10919 -24.48668,25.94592 -42.54601,29.09615 8.02429,-11.07164 14.0113,-23.6906 17.21962,-37.43617 z" /></svg>
