<?xml version="1.0" encoding="UTF-8" standalone="no"?>
<svg
   width="37.957405"
   height="43.482689"
   viewBox="0 0 37.957405 43.482689"
   fill="none"
   version="1.1"
   id="svg3"
   sodipodi:docname="pinpoint-green.svg"
   inkscape:version="1.4 (86a8ad7, 2024-10-11)"
   xmlns:inkscape="http://www.inkscape.org/namespaces/inkscape"
   xmlns:sodipodi="http://sodipodi.sourceforge.net/DTD/sodipodi-0.dtd"
   xmlns="http://www.w3.org/2000/svg"
   xmlns:svg="http://www.w3.org/2000/svg">
  <sodipodi:namedview
     id="namedview3"
     pagecolor="#ffffff"
     bordercolor="#000000"
     borderopacity="0.25"
     inkscape:showpageshadow="2"
     inkscape:pageopacity="0.0"
     inkscape:pagecheckerboard="0"
     inkscape:deskcolor="#d1d1d1"
     inkscape:zoom="11.737973"
     inkscape:cx="7.1988579"
     inkscape:cy="26.324818"
     inkscape:window-width="1920"
     inkscape:window-height="1010"
     inkscape:window-x="-6"
     inkscape:window-y="-6"
     inkscape:window-maximized="1"
     inkscape:current-layer="g1" />
  <g
     filter="url(#filter0_d_269_919)"
     id="g1"
     transform="translate(0.41650009)">
    <path
       d="M 18.5833,0 C 10.5208,0 4,6.52083 4,14.5833 c 0,10.9375 14.5833,27.0834 14.5833,27.0834 0,0 14.5834,-16.1459 14.5834,-27.0834 C 33.1667,6.52083 26.6458,0 18.5833,0 Z m 0,19.7917 c -1.3813,0 -2.7061,-0.5488 -3.6828,-1.5255 -0.9768,-0.9768 -1.5255,-2.3015 -1.5255,-3.6829 0,-1.3813 0.5487,-2.7061 1.5255,-3.6828 0.9767,-0.97677 2.3015,-1.5255 3.6828,-1.5255 1.3814,0 2.7061,0.54873 3.6829,1.5255 0.9767,0.9767 1.5255,2.3015 1.5255,3.6828 0,1.3814 -0.5488,2.7061 -1.5255,3.6829 -0.9768,0.9767 -2.3015,1.5255 -3.6829,1.5255 z"
       fill="#ce0e2d"
       id="path1"
       style="fill:#16b516;fill-opacity:1" />
  </g>
  <defs
     id="defs3">
    <filter
       id="filter0_d_269_919"
       x="0"
       y="0"
       width="37.167"
       height="49.666698"
       filterUnits="userSpaceOnUse"
       color-interpolation-filters="sRGB">
      <feFlood
         flood-opacity="0"
         result="BackgroundImageFix"
         id="feFlood1" />
      <feColorMatrix
         in="SourceAlpha"
         type="matrix"
         values="0 0 0 0 0 0 0 0 0 0 0 0 0 0 0 0 0 0 127 0"
         result="hardAlpha"
         id="feColorMatrix1" />
      <feOffset
         dy="4"
         id="feOffset1" />
      <feGaussianBlur
         stdDeviation="2"
         id="feGaussianBlur1" />
      <feComposite
         in2="hardAlpha"
         operator="out"
         id="feComposite1" />
      <feColorMatrix
         type="matrix"
         values="0 0 0 0 0 0 0 0 0 0 0 0 0 0 0 0 0 0 0.25 0"
         id="feColorMatrix2" />
      <feBlend
         mode="normal"
         in2="BackgroundImageFix"
         result="effect1_dropShadow_269_919"
         id="feBlend2" />
      <feBlend
         mode="normal"
         in="SourceGraphic"
         in2="effect1_dropShadow_269_919"
         result="shape"
         id="feBlend3" />
    </filter>
  </defs>
</svg>
