<svg version="1.1" viewBox="0.0 0.0 60.0 60.0" fill="none" stroke="none" stroke-linecap="square" stroke-miterlimit="10" xmlns:xlink="http://www.w3.org/1999/xlink" xmlns="http://www.w3.org/2000/svg"><clipPath id="p.0"><path d="m0 0l60.0 0l0 60.0l-60.0 0l0 -60.0z" clip-rule="nonzero"/></clipPath><g clip-path="url(#p.0)"><path fill="#000000" fill-opacity="0.0" d="m0 0l60.0 0l0 60.0l-60.0 0z" fill-rule="evenodd"/><path fill="#000000" d="m11.228347 16.968504l0 0c0 -1.70469 1.3819237 -3.0866146 3.0866137 -3.0866146l31.370079 0c0.8186226 0 1.603714 0.32519627 2.1825638 0.9040489c0.5788536 0.57885265 0.9040489 1.363945 0.9040489 2.1825657l0 0l0 0c0 1.704689 -1.3819237 3.0866146 -3.0866127 3.0866146l-31.370079 0c-1.70469 0 -3.0866137 -1.3819256 -3.0866137 -3.0866146z" fill-rule="evenodd"/><path fill="#000000" d="m11.228347 30.0l0 0c0 -1.704689 1.3819237 -3.0866146 3.0866137 -3.0866146l31.370079 0c0.8186226 0 1.603714 0.32519722 2.1825638 0.9040489c0.5788536 0.5788517 0.9040489 1.363945 0.9040489 2.1825657l0 0l0 0c0 1.704689 -1.3819237 3.0866127 -3.0866127 3.0866127l-31.370079 0c-1.70469 0 -3.0866137 -1.3819237 -3.0866137 -3.0866127z" fill-rule="evenodd"/><path fill="#000000" d="m11.228347 43.031498l0 0c0 -1.7046928 1.3819237 -3.0866165 3.0866137 -3.0866165l31.370079 0c0.8186226 0 1.603714 0.3251953 2.1825638 0.9040489c0.5788536 0.5788536 0.9040489 1.363945 0.9040489 2.1825676l0 0l0 0c0 1.704689 -1.3819237 3.0866127 -3.0866127 3.0866127l-31.370079 0c-1.70469 0 -3.0866137 -1.3819237 -3.0866137 -3.0866127z" fill-rule="evenodd"/></g></svg>