<svg version="1.1" viewBox="0.0 0.0 60.0 60.0" fill="none" stroke="none" stroke-linecap="square" stroke-miterlimit="10" xmlns:xlink="http://www.w3.org/1999/xlink" xmlns="http://www.w3.org/2000/svg"><clipPath id="p.0"><path d="m0 0l60.0 0l0 60.0l-60.0 0l0 -60.0z" clip-rule="nonzero"/></clipPath><g clip-path="url(#p.0)"><path fill="#000000" fill-opacity="0.0" d="m0 0l60.0 0l0 60.0l-60.0 0z" fill-rule="evenodd"/><path fill="#000000" d="m13.260384 46.7405l0 0c-1.2089386 -1.2089386 -1.2089386 -3.169014 0 -4.3779526l29.102364 -29.102362c0.58055115 -0.5805521 1.3679504 -0.906703 2.1889763 -0.906703c0.82102585 0 1.6084213 0.3261509 2.1889763 0.906703l0 0l0 0c1.2089386 1.2089386 1.2089386 3.169014 0 4.3779526l-29.102364 29.102362l0 0c-1.2089386 1.2089386 -3.169014 1.2089386 -4.3779526 0z" fill-rule="evenodd"/><path fill="#000000" d="m13.290582 13.197134l0 0c1.2089386 -1.2089376 3.1662474 -1.2061787 4.371772 0.006163597l29.051731 29.216022c0.57891464 0.58218384 0.903492 1.371151 0.9023323 2.1933327c-0.0011558533 0.8221817 -0.32796097 1.6102295 -0.9085121 2.1907806l0 0l0 0c-1.2089386 1.2089386 -3.1662483 1.2061806 -4.371773 -0.006160736l-29.051731 -29.21602l0 0c-1.2055244 -1.2123432 -1.2027578 -3.1751785 0.0061807632 -4.384117z" fill-rule="evenodd"/></g></svg>