<svg version="1.1" viewBox="0.0 0.0 60.0 60.0" fill="none" stroke="none" stroke-linecap="square" stroke-miterlimit="10" xmlns:xlink="http://www.w3.org/1999/xlink" xmlns="http://www.w3.org/2000/svg"><clipPath id="p.0"><path d="m0 0l60.0 0l0 60.0l-60.0 0l0 -60.0z" clip-rule="nonzero"/></clipPath><g clip-path="url(#p.0)"><path fill="#000000" fill-opacity="0.0" d="m0 0l60.0 0l0 60.0l-60.0 0z" fill-rule="evenodd"/><path fill="#000000" d="m16.725275 16.724974l0 0c1.2089386 -1.2089386 3.169014 -1.2089386 4.3779526 0l22.173227 22.173227c0.58055496 0.58055115 0.90670395 1.3679504 0.90670395 2.1889763c0 0.82102585 -0.326149 1.6084251 -0.90670395 2.1889763l0 0l0 0c-1.2089386 1.2089386 -3.169014 1.2089386 -4.3779526 0l-22.173227 -22.173227c-1.2089376 -1.2089386 -1.2089376 -3.169016 0 -4.3779526z" fill-rule="evenodd"/><path fill="#000000" d="m16.724974 43.274723l0 0c-1.2089386 -1.2089348 -1.2089386 -3.169014 0 -4.3779526l22.173227 -22.173227c0.58055115 -0.58055305 1.3679504 -0.906703 2.1889763 -0.906703c0.82102585 0 1.6084251 0.32614994 2.1889763 0.906703l0 0l0 0c1.2089386 1.2089386 1.2089386 3.169014 0 4.3779526l-22.173227 22.173227c-1.2089386 1.2089386 -3.169016 1.2089386 -4.3779526 0z" fill-rule="evenodd"/></g></svg>