<?xml version="1.0" encoding="UTF-8" standalone="no"?>
<svg
   version="1.1"
   viewBox="0 0 40 40.000001"
   fill="none"
   stroke="none"
   stroke-linecap="square"
   stroke-miterlimit="10"
   id="svg5"
   sodipodi:docname="expand.svg"
   inkscape:version="1.4 (86a8ad7, 2024-10-11)"
   width="40"
   height="40"
   xmlns:inkscape="http://www.inkscape.org/namespaces/inkscape"
   xmlns:sodipodi="http://sodipodi.sourceforge.net/DTD/sodipodi-0.dtd"
   xmlns="http://www.w3.org/2000/svg"
   xmlns:svg="http://www.w3.org/2000/svg">
  <defs
     id="defs5" />
  <sodipodi:namedview
     id="namedview5"
     pagecolor="#ffffff"
     bordercolor="#000000"
     borderopacity="0.25"
     inkscape:showpageshadow="2"
     inkscape:pageopacity="0.0"
     inkscape:pagecheckerboard="0"
     inkscape:deskcolor="#d1d1d1"
     inkscape:zoom="13.833333"
     inkscape:cx="18.759037"
     inkscape:cy="16.120482"
     inkscape:window-width="1920"
     inkscape:window-height="1010"
     inkscape:window-x="-6"
     inkscape:window-y="-6"
     inkscape:window-maximized="1"
     inkscape:current-layer="svg5" />
  <path
     fill="#000000"
     d="m 0,6.1157712 v 0 C 0,4.2995326 1.472352,2.8271795 3.2885906,2.8271795 H 36.711412 c 0.872189,0 1.708655,0.3464767 2.325382,0.9632066 C 39.653525,4.4071171 40,5.2435826 40,6.1157712 v 0 0 c 0,1.8162375 -1.472351,3.2885916 -3.288588,3.2885916 H 3.2885906 C 1.472352,9.4043628 0,7.9320087 0,6.1157712 Z"
     fill-rule="evenodd"
     id="path3"
     style="stroke-width:1" />
  <path
     fill="#000000"
     d="m 0,20 v 0 C 0,18.183762 1.472352,16.711408 3.2885906,16.711408 H 36.711412 c 0.872189,0 1.708655,0.346478 2.325382,0.963208 C 39.653525,18.291344 40,19.127811 40,20 v 0 0 c 0,1.816237 -1.472351,3.288589 -3.288588,3.288589 H 3.2885906 C 1.472352,23.288589 0,21.816237 0,20 Z"
     fill-rule="evenodd"
     id="path4"
     style="stroke-width:1" />
  <path
     fill="#000000"
     d="m 0,33.884231 v 0 C 0,32.067989 1.472352,30.595637 3.2885906,30.595637 H 36.711412 c 0.872189,0 1.708655,0.346475 2.325382,0.963206 C 39.653525,32.175575 40,33.01204 40,33.884231 v 0 0 c 0,1.816237 -1.472351,3.288589 -3.288588,3.288589 H 3.2885906 C 1.472352,37.17282 0,35.700468 0,33.884231 Z"
     fill-rule="evenodd"
     id="path5"
     style="stroke-width:1" />
</svg>
