<?xml version="1.0" encoding="UTF-8" standalone="no"?>
<svg
   version="1.1"
   viewBox="0 0 40 40.000001"
   fill="none"
   stroke="none"
   stroke-linecap="square"
   stroke-miterlimit="10"
   id="svg5"
   sodipodi:docname="expand.svg"
   inkscape:version="1.4 (86a8ad7, 2024-10-11)"
   width="40"
   height="40"
   xmlns:inkscape="http://www.inkscape.org/namespaces/inkscape"
   xmlns:sodipodi="http://sodipodi.sourceforge.net/DTD/sodipodi-0.dtd"
   xmlns="http://www.w3.org/2000/svg"
   xmlns:svg="http://www.w3.org/2000/svg">
  <defs
     id="defs5" />
  <sodipodi:namedview
     id="namedview5"
     pagecolor="#ffffff"
     bordercolor="#000000"
     borderopacity="0.25"
     inkscape:showpageshadow="2"
     inkscape:pageopacity="0.0"
     inkscape:pagecheckerboard="0"
     inkscape:deskcolor="#d1d1d1"
     inkscape:zoom="13.833333"
     inkscape:cx="18.759037"
     inkscape:cy="16.120482"
     inkscape:window-width="1920"
     inkscape:window-height="1010"
     inkscape:window-x="-6"
     inkscape:window-y="-6"
     inkscape:window-maximized="1"
     inkscape:current-layer="svg5" />
  <path
     id="path3"
     style="stroke-width:1;fill:#000000;stroke:none"
     d="M 3.2890625 2.828125 C 1.4728239 2.828125 0 4.2989958 0 6.1152344 C 5.9211895e-16 7.9314719 1.4728239 9.4042969 3.2890625 9.4042969 L 36.710938 9.4042969 C 38.527175 9.4042969 40 7.9314719 40 6.1152344 C 40 5.2430458 39.65384 4.4077466 39.037109 3.7910156 C 38.420382 3.1742857 37.583126 2.828125 36.710938 2.828125 L 3.2890625 2.828125 z M 3.2890625 16.710938 C 1.4728239 16.710938 0 18.183762 0 20 C 5.9211895e-16 21.816237 1.4728239 23.289062 3.2890625 23.289062 L 36.710938 23.289062 C 38.527175 23.289062 40 21.816237 40 20 C 40 19.127811 39.65384 18.290556 39.037109 17.673828 C 38.420382 17.057098 37.583126 16.710938 36.710938 16.710938 L 3.2890625 16.710938 z M 3.2890625 30.595703 C 1.4728239 30.595703 0 32.068524 0 33.884766 C 5.9211895e-16 35.701003 1.4728239 37.171875 3.2890625 37.171875 L 36.710938 37.171875 C 38.527175 37.171875 40 35.701003 40 33.884766 C 40 33.012575 39.65384 32.175326 39.037109 31.558594 C 38.420382 30.941863 37.583126 30.595703 36.710938 30.595703 L 3.2890625 30.595703 z " />
</svg>
