<?xml version="1.0" encoding="UTF-8" standalone="no"?>
<svg
   version="1.1"
   viewBox="0 0 546.95724 168"
   fill="none"
   stroke="none"
   stroke-linecap="square"
   stroke-miterlimit="10"
   id="svg12"
   sodipodi:docname="logo.svg"
   inkscape:version="1.4 (86a8ad7, 2024-10-11)"
   xml:space="preserve"
   width="546.95728"
   height="168"
   xmlns:inkscape="http://www.inkscape.org/namespaces/inkscape"
   xmlns:sodipodi="http://sodipodi.sourceforge.net/DTD/sodipodi-0.dtd"
   xmlns="http://www.w3.org/2000/svg"
   xmlns:svg="http://www.w3.org/2000/svg"><defs
     id="defs12"><inkscape:path-effect
       effect="offset"
       id="path-effect14"
       is_visible="true"
       lpeversion="1.3"
       linejoin_type="miter"
       unit="in"
       offset="-0.05"
       miter_limit="4"
       attempt_force_join="false"
       update_on_knot_move="true" /><inkscape:path-effect
       effect="fillet_chamfer"
       id="path-effect24"
       is_visible="true"
       lpeversion="1"
       nodesatellites_param="F,0,0,1,0,2.9999998,0,1 @ F,0,0,1,0,2.9999998,0,1 @ F,0,0,1,0,2.9999998,0,1 @ F,0,0,1,0,2.9999998,0,1"
       radius="3"
       unit="px"
       method="auto"
       mode="F"
       chamfer_steps="1"
       flexible="false"
       use_knot_distance="true"
       apply_no_radius="true"
       apply_with_radius="true"
       only_selected="false"
       hide_knots="false" /><inkscape:path-effect
       effect="fillet_chamfer"
       id="path-effect21"
       is_visible="true"
       lpeversion="1"
       nodesatellites_param="F,0,0,1,0,2.9999998,0,1 @ F,0,0,1,0,2.9999998,0,1 @ F,0,0,1,0,2.9999998,0,1 @ F,0,0,1,0,2.9999998,0,1"
       radius="3"
       unit="px"
       method="auto"
       mode="F"
       chamfer_steps="1"
       flexible="false"
       use_knot_distance="true"
       apply_no_radius="true"
       apply_with_radius="true"
       only_selected="false"
       hide_knots="false" /><inkscape:path-effect
       effect="fill_between_many"
       method="originald"
       linkedpaths="#text24,0,1"
       id="path-effect31"
       is_visible="true"
       lpeversion="0"
       join="true"
       close="true"
       autoreverse="true" /></defs><sodipodi:namedview
     id="namedview12"
     pagecolor="#ffffff"
     bordercolor="#000000"
     borderopacity="0.25"
     inkscape:showpageshadow="2"
     inkscape:pageopacity="0.0"
     inkscape:pagecheckerboard="0"
     inkscape:deskcolor="#d1d1d1"
     inkscape:zoom="1.4142136"
     inkscape:cx="153.44217"
     inkscape:cy="86.620578"
     inkscape:window-width="1147"
     inkscape:window-height="755"
     inkscape:window-x="620"
     inkscape:window-y="66"
     inkscape:window-maximized="0"
     inkscape:current-layer="svg12"
     showguides="false"><inkscape:page
       x="0"
       y="0"
       width="546.95721"
       height="168"
       id="page31"
       margin="0"
       bleed="0" /></sodipodi:namedview><clipPath
     id="p.0"><path
       d="M 0,0 H 521.50134 V 168 H 0 Z"
       clip-rule="nonzero"
       id="path1" /></clipPath><path
     d="m 197.79297,11.242188 c -1.77155,0 -2.89203,0.338217 -3.36328,1.013671 -0.4652,0.675484 -0.58292,1.153204 -0.35352,1.433594 -0.73283,-0.08285 -1.20377,0.248557 -1.41406,0.994141 -0.21029,0.745579 -0.54509,1.404991 -1.00391,1.978515 -0.39509,0.395095 -0.59375,0.768652 -0.59375,1.119141 0,0.350507 -0.003,0.543818 -0.01,0.582031 -0.0637,0.17206 -0.17468,0.406084 -0.33399,0.699219 -0.15932,0.28676 -0.31581,0.658367 -0.46875,1.117187 -0.1593,0.630879 -0.30902,1.143968 -0.44922,1.539063 -0.13382,0.395095 -0.33052,0.854408 -0.59179,1.376953 -0.12745,0.344115 -0.29074,0.660506 -0.48828,0.947266 -0.19755,0.28039 -0.56771,0.801707 -1.10938,1.566406 0.75195,0.344115 0.93704,0.457013 0.55469,0.335937 -0.37597,-0.127449 -0.64681,0.108018 -0.8125,0.707032 -0.11706,0.634792 -0.0901,1.074006 0.0664,1.339843 -0.12425,0.08109 -0.20601,0.180287 -0.1914,0.322266 0.0446,0.426955 0.0582,0.697795 0.0391,0.8125 0.22941,0.05736 0.16206,0.166862 -0.20117,0.326172 -0.36323,0.15294 -0.54492,0.726594 -0.54492,1.720703 0.20391,0 0.13513,0.174902 -0.20899,0.525391 -0.33774,0.350485 -0.12407,0.678495 0.64063,0.984375 -0.84117,-0.108331 -1.31745,0.165901 -1.42578,0.822265 -0.10834,0.65637 -0.20427,1.145709 -0.28711,1.470703 -0.14656,0.395095 -0.36846,0.810811 -0.66797,1.244141 -0.29313,0.426959 -0.532,0.919689 -0.7168,1.480469 -0.24215,0.490684 -0.29254,0.874422 -0.15234,1.148437 0.14022,0.274001 0.12662,0.403352 -0.0391,0.390625 -0.0701,0.242155 -0.28377,0.630727 -0.64063,1.166016 -0.35686,0.53529 -0.57052,1.436954 -0.64062,2.705078 -0.0446,0.860289 -0.28347,1.787141 -0.7168,2.78125 -0.42695,0.994109 -0.64063,1.980089 -0.64063,2.955078 -0.17842,0.573525 -0.33637,1.190777 -0.47656,1.853516 -0.13383,0.662739 -0.25495,1.264976 -0.36328,1.80664 -0.1147,0.146566 -0.30317,0.477967 -0.56445,0.994141 -0.2549,0.509799 -0.0412,1.033073 0.64062,1.568359 -0.71372,-0.31225 -1.14445,-0.201305 -1.29101,0.333985 -0.14655,0.528915 -0.24588,0.935892 -0.29688,1.222656 -0.17843,0.777445 -0.45266,1.571555 -0.82226,2.380859 -0.36324,0.802934 -0.68785,1.689584 -0.97461,2.658204 -0.15291,0.471564 -0.17135,0.817976 -0.0566,1.041015 0.12107,0.216665 -0.0388,0.373165 -0.47852,0.46875 -0.17843,1.274499 -0.48124,2.275489 -0.9082,3.001953 -0.42059,0.720094 -0.76701,1.461864 -1.04102,2.226563 -1.86077,1.867139 -6.12539,3.103596 -12.79101,3.708984 2.07743,2.077434 3.28869,2.968916 3.63281,2.675781 0.33774,-0.293134 0.46904,-4.97e-4 0.39258,0.878907 2.09655,-0.29951 3.91489,-0.549987 5.45703,-0.753907 1.54851,-0.203918 3.40078,-0.278056 5.55468,-0.220703 0.68823,-0.414214 1.19454,-0.668086 1.51954,-0.763672 0.11457,-0.0337 0.24869,-0.136029 0.39257,-0.269531 0.32553,0.25261 0.94737,0.660836 1.98829,1.291016 0.72646,-0.407858 1.0375,-0.618133 0.93554,-0.63086 0.75833,0.414215 1.4783,0.481562 2.16016,0.201172 0.68821,-0.280382 1.05837,-0.430092 1.10937,-0.449218 0.3951,0.159316 0.95035,0.208258 1.66407,0.144531 0.72009,-0.06373 1.57959,-0.188242 2.58007,-0.373047 0.88578,-0.943129 1.22058,-1.577348 1.00391,-1.902344 -0.21029,-0.331369 -0.26407,-1.211233 -0.16211,-2.638672 -2.1539,0.46519 -3.71836,0.604723 -4.69336,0.419922 -0.96862,-0.133806 -1.72736,-0.138657 -2.27539,-0.01758 -0.54803,0.114705 -1.04271,-0.03357 -1.48242,-0.441406 -0.24217,-0.203938 -0.36813,-0.311492 -0.38086,-0.324219 -0.007,-0.01274 -0.0117,-0.38291 -0.0117,-1.109375 -0.40755,-0.344113 -0.61443,-0.547601 -0.62109,-0.611328 0,-0.06373 0.0557,-0.28901 0.16406,-0.677734 0.10833,-0.395095 0.23429,-0.882996 0.38086,-1.462891 0.15294,-0.586269 0.11757,-1.027178 -0.10547,-1.320313 0.42696,-0.114705 0.676,-0.43932 0.74609,-0.974609 0.0765,-0.535289 0.1792,-0.991208 0.30664,-1.367187 0.66912,-0.94313 1.1856,-2.208174 1.54883,-3.794922 0.0829,-0.312254 0.22917,-0.700826 0.43946,-1.166016 0.21666,-0.465195 -0.0508,-0.942914 -0.80274,-1.433594 0.50701,0.317955 0.78712,0.425721 0.87695,0.355469 0.007,0.02464 0.003,0.02008 0.0117,0.04687 0.63726,-0.191175 1.39939,-0.330707 2.28516,-0.419922 0.88578,-0.09559 1.60575,-0.130962 2.16016,-0.105469 0.78381,0.522541 1.68208,0.672255 2.69531,0.449219 1.0196,-0.22941 1.86409,-0.370895 2.5332,-0.421875 0.38235,0 0.83827,0.02858 1.36719,0.08594 0.53529,0.05098 1.07357,0.07813 1.61523,0.07813 0.88494,0.07143 1.62023,-0.05594 2.23828,-0.337891 0.0381,0.304537 0.0837,0.667918 0.14063,1.091797 0.0574,0.426955 0.14989,0.929867 0.27734,1.509766 0.13382,0.573524 0.57474,0.708223 1.32032,0.402343 -0.79656,0.630876 -1.06401,1.2617 -0.80274,1.892578 0.26765,0.630875 0.57046,1.051425 0.9082,1.261719 0.24216,1.02597 0.63896,2.055547 1.19336,3.087891 0.56078,1.032344 1.18822,1.876834 1.88282,2.533203 -0.85666,-0.05746 -1.05377,1.083064 -0.66016,3.294922 -0.16635,0.109109 -0.33821,0.262794 -0.52344,0.509765 -0.26764,0.242155 -0.79431,0.489241 -1.57812,0.744141 -0.77745,0.2549 -1.45043,0.382813 -2.01758,0.382813 0,0.356859 -0.0722,0.407243 -0.21875,0.152343 -0.14657,-0.261274 -0.47118,-0.390625 -0.97461,-0.390625 -0.63088,0 -1.30726,0.09737 -2.02734,0.294922 -0.7201,0.197546 -1.68911,1.023634 -2.90625,2.476563 1.46567,1.229914 2.52722,1.86413 3.18359,1.902343 0.66274,0.04463 1.2548,0.03782 1.77734,-0.01953 0.52892,-0.05735 0.97661,-0.107737 1.33985,-0.152344 0.3696,-0.03824 0.82357,0.02233 1.36523,0.181641 0.75196,-0.318603 1.39296,-0.458135 1.92188,-0.419922 0.52892,0.04461 0.99502,0.466597 1.39648,1.269531 1.26176,10e-7 2.10625,-0.09737 2.5332,-0.294921 0.43333,-0.197546 0.75116,-0.360832 0.95508,-0.488282 0.20395,-0.121116 0.31829,-0.185073 0.34375,-0.191406 0.0255,0 0.25757,0.09254 0.69727,0.277344 0.77745,-0.235777 1.53618,-0.365132 2.27539,-0.390625 0.73921,-0.02549 1.42381,-0.09623 2.05469,-0.210938 -0.0701,-0.312252 -0.0463,-0.280275 0.0684,0.0957 0.12108,0.375976 0.89142,0.564454 2.3125,0.564454 0.42058,-0.51617 0.74859,-0.825775 0.98437,-0.927735 0.23579,-0.09559 0.44945,-0.130962 0.64063,-0.105469 0.84116,10e-7 1.50058,-0.05378 1.97851,-0.162109 0.35414,-0.08027 0.70364,-0.121785 1.05078,-0.142578 -0.12087,0.206889 -0.28614,0.456717 -0.53515,0.783203 1.94998,0 3.18787,-0.03876 3.71679,-0.115234 0.52892,-0.07649 1.25907,-0.06968 2.18946,0.01953 0.2294,-0.522545 0.42806,-0.743 0.59375,-0.660156 0.17206,0.07647 0.42932,0.115234 0.77343,0.115234 0.35049,0 0.78945,-0.01698 1.31836,-0.04883 0.52891,-0.03824 0.80314,-0.309071 0.82227,-0.8125 0.32499,0.522545 0.79449,0.785156 1.40625,0.785156 0.61813,0 1.32114,-0.04895 2.11133,-0.144531 0.45882,0.09558 1.01746,0.144531 1.67383,0.144531 0.65636,0 1.29397,-0.01358 1.9121,-0.03906 0.62451,-0.03186 1.21318,-0.06044 1.76758,-0.08594 0.55441,-0.03186 1.2642,-0.102607 2.13086,-0.210937 1.22352,-0.09557 2.43479,-0.100419 3.63281,-0.01758 1.19803,0.08283 2.36714,0.07266 3.50782,-0.0293 0.3696,0.0701 0.98202,0.198012 1.83593,0.382812 0.85392,0.184805 1.49831,0.114062 1.93165,-0.210937 0.17206,0.03825 0.5049,0.04842 1.00195,0.0293 0.49705,-0.02549 1.13127,0.174603 1.90234,0.601562 0.31117,-0.125609 0.53836,-0.266177 0.70117,-0.419922 -0.0581,0.253315 -0.10678,0.419791 -0.18359,0.830078 1.23626,-0.611759 2.05217,-0.882599 2.44727,-0.8125 0.39509,0.0701 1.55063,0.283766 3.46875,0.640625 -0.17209,-1.357338 -0.15849,-2.114122 0.0391,-2.273437 0.20392,-0.165685 0.15837,-0.937999 -0.13477,-2.314453 -1.72057,-0.477936 -3.3238,-0.773967 -4.80859,-0.888672 -1.48479,-0.114708 -2.66891,-0.128277 -3.55469,-0.03906 -0.64362,-0.324999 -1.24925,-0.39718 -1.8164,-0.21875 -0.56079,0.17206 -0.80983,0.257813 -0.7461,0.257813 -0.28676,-0.165685 -0.66176,-0.37935 -1.12695,-0.640625 -0.30745,-0.172674 -0.66935,-0.195806 -1.07422,-0.0957 0.29556,-0.16979 0.40953,-0.37665 0.29883,-0.63086 -0.17206,-0.401464 -0.30141,-0.719293 -0.39063,-0.955078 -0.0828,-0.235802 -0.21075,-0.373896 -0.38281,-0.412109 -0.17205,-0.03824 -0.0122,-0.159361 0.47852,-0.363281 -0.17208,-0.91764 -0.27141,-1.652623 -0.29688,-2.207032 -0.0191,-0.554404 -0.0545,-1.188624 -0.10547,-1.902343 0,-0.159315 0.032,-0.394782 0.0957,-0.707032 0.0701,-0.312254 0.14906,-0.668847 0.23828,-1.070312 0.0956,-0.401469 0.14453,-0.909725 0.14453,-1.521485 0,-0.618129 -0.40554,-0.856991 -1.21485,-0.716796 0.9049,-0.40784 1.29686,-0.914143 1.17579,-1.519532 -0.12108,-0.605385 -0.37012,-1.15868 -0.7461,-1.662109 0.82673,-0.943043 1.17677,-1.46818 1.06641,-1.587891 0.13452,-0.05879 0.12797,-0.05081 0.29101,-0.123047 -1.19165,-0.02549 -1.57344,-0.08606 -1.14648,-0.18164 0.42698,-0.09559 0.65422,-0.280672 0.67969,-0.554688 0.0319,-0.274019 0.0469,-0.519663 0.0469,-0.736328 0,-0.216664 0.0504,-0.89304 0.15235,-2.027344 -0.18652,-0.176076 -0.3473,-0.303726 -0.50391,-0.421875 0.22186,-0.08524 0.44928,-0.173967 0.73437,-0.304687 -1.00048,-0.184801 -1.32848,-0.346133 -0.98437,-0.486328 0.20202,-0.08231 0.24513,-0.230972 0.16601,-0.429688 0.20356,0.09657 0.41885,0.160824 0.65625,0.152344 0.71373,-0.03185 1.38476,-0.04883 2.01563,-0.04883 0.63088,0.04461 1.29707,0.137149 1.99805,0.277344 0.70734,0.140194 1.4375,0.182353 2.18945,0.125 0.5799,0 0.97186,-0.102721 1.17578,-0.306641 0.20392,-0.21029 0.58571,0.03875 1.14649,0.746094 0.40146,-0.879404 0.67569,-1.193842 0.82226,-0.945313 0.15294,0.242155 0.45576,0.336137 0.9082,0.285157 1.74606,0.2549 3.40307,0.297059 4.97071,0.125 1.574,-0.172056 3.24941,-0.574199 5.02734,-1.205079 l 1.11914,-0.429687 c 0.46519,-0.216665 0.9681,-0.362983 1.50977,-0.439453 0.54166,-0.08284 1.19428,-0.314916 1.95898,-0.697266 0.58627,-0.41421 0.97484,-0.745611 1.16602,-0.99414 0.19755,-0.248527 0.5561,-0.401631 1.07226,-0.458985 0.2103,-0.490701 0.48597,-0.754755 0.83008,-0.792969 0.35049,-0.03824 0.86018,-0.334263 1.5293,-0.888671 0.17204,-0.41421 0.17884,-0.791162 0.0195,-1.128907 -0.15294,-0.344114 0.33496,-0.197796 1.46289,0.439453 -0.0255,-1.12793 -0.007,-1.755363 0.0566,-1.882812 0.0701,-0.133825 0.16604,-0.308726 0.28711,-0.525391 0.12108,-0.216664 0.33474,-0.630428 0.64062,-1.242187 0.14788,-0.289715 0.1021,-0.484495 -0.12304,-0.589844 0.22423,-0.06615 0.35072,-0.178733 0.33398,-0.357422 -0.0382,-0.407839 0.2796,-0.678675 0.95508,-0.8125 0,-0.783814 0.0673,-1.322099 0.20117,-1.615234 0.031,-0.06944 0.0299,-0.135261 0.008,-0.199219 0.13208,-0.01048 0.25167,-0.05004 0.34571,-0.154297 0.2995,-0.33137 0.70648,-0.709764 1.22265,-1.136719 v -0.002 c 0.27402,-1.516654 0.1277,-2.238068 -0.43945,-2.167968 -0.56078,0.0701 -0.32531,-0.862104 0.70703,-2.792969 -0.49769,0.393019 -0.73278,0.605908 -1.0664,0.886719 0.0751,-0.168478 0.0809,-0.227605 0.1875,-0.445313 -0.41422,-0.771074 -0.48301,-1.558394 -0.20899,-2.361328 -0.65638,-0.46519 -0.68351,-0.885739 -0.0781,-1.261719 -0.5353,-0.974989 -0.89867,-1.933824 -1.08985,-2.876953 -0.1848,-0.949503 -0.83742,-1.398636 -1.95898,-1.347656 0.64999,-0.41421 0.82006,-0.804735 0.50781,-1.167969 -0.30588,-0.36323 -0.5685,-0.64908 -0.78516,-0.859375 -0.21029,-0.216665 -0.46755,-0.27723 -0.77343,-0.181641 -0.30588,0.09559 -0.1208,-0.03233 0.55468,-0.382812 -0.64362,-0.943129 -1.10633,-1.299723 -1.38671,-1.070313 -0.2804,0.223036 -0.36954,-0.14713 -0.26758,-1.109375 -0.52894,-0.02549 -0.82157,-0.151449 -0.87891,-0.380859 -0.051,-0.229409 -0.40274,-0.677104 -1.05273,-1.339844 -1.11519,-0.235782 -1.90056,-0.385492 -2.35938,-0.449218 -0.45244,-0.0701 -0.90837,-0.608381 -1.36719,-1.615235 -0.70737,1.140674 -1.07414,1.314138 -1.0996,0.517578 -0.0255,-0.796564 -0.36029,-0.586288 -1.00391,0.63086 0.2995,-0.599014 0.23215,-0.997763 -0.20117,-1.195313 -0.43333,-0.197545 -0.92946,-0.332244 -1.49024,-0.402343 -1.46567,-0.274016 -2.98314,-0.460541 -4.55078,-0.5625 -1.56126,-0.108335 -3.10392,-0.229462 -4.62695,-0.363282 -0.33774,0.127428 -0.68754,0.145856 -1.05078,0.05664 -0.35686,-0.08921 -0.91211,-0.228747 -1.66407,-0.419922 -0.71371,0.254878 -1.42012,0.273305 -2.12109,0.05664 -0.70097,-0.216665 -1.685,-0.262216 -2.95312,-0.134766 -1.45293,0.101997 -3.03776,0.100517 -4.75196,-0.0078 -1.70783,-0.108335 -3.43023,0.02441 -5.16992,0.40039 -0.0319,0 -0.15978,-0.03198 -0.38281,-0.0957 -0.21667,-0.0701 -0.53305,-0.137445 -0.94727,-0.201172 -0.72008,-0.08922 -1.34752,-0.06063 -1.88281,0.08594 -0.53529,0.140195 -1.02318,0.210937 -1.46289,0.210937 -0.43333,0.03824 -0.87907,-5.3e-4 -1.33789,-0.115234 -0.45245,-0.121078 -1.00914,-0.213617 -1.67188,-0.277344 -0.68822,-0.07647 -1.26866,-0.04593 -1.74023,0.08789 -0.46519,0.133862 -0.86055,0.130429 -1.18555,-0.0098 -1.574,0 -2.93497,0.06396 -4.08203,0.191406 -1.14704,0.121076 -2.52643,0.05033 -4.13867,-0.210937 -0.42058,0.324995 -0.9385,0.531879 -1.55664,0.621094 -0.6245,0.08284 -1.17975,1.070261 -1.66406,2.96289 1.08915,0.809366 1.93365,1.01809 2.54101,0.644531 -0.22218,0.444781 -0.051,1.100281 0.52735,1.97461 0.89215,-0.305884 1.42025,-0.445415 1.58593,-0.419922 0.17206,0.01912 0.68032,-0.04823 1.52149,-0.201172 0.35048,-0.344107 0.69011,-0.500603 1.02148,-0.46875 0.33137,0.03186 0.77567,-0.245762 1.33008,-0.832031 0,0.630874 0.25387,0.947265 0.76367,0.947265 0.50979,0 0.77384,-0.232075 0.79297,-0.697265 0.0637,0.573506 0.29097,0.85257 0.67969,0.839843 0.39509,-0.01912 0.39509,0.571503 0,1.769532 0.63766,-0.312325 1.02967,-0.532604 1.375,-0.734375 0.0346,0.01817 0.0792,0.03384 0.16406,0.03516 0.40784,0.0064 0.1622,0.415301 -0.73633,1.224609 0.40536,0.162656 0.68913,0.284807 0.95117,0.400391 -0.13534,0.28331 -0.2499,0.642581 -0.33007,1.138672 -0.0632,0.417346 0.19858,0.920627 0.72656,1.49414 -0.31533,0.171135 -0.5632,0.324372 -0.9082,0.503907 0.34633,0 0.59329,-0.01088 0.91406,-0.01367 -0.23769,0.404037 -0.57306,0.944944 -1.00977,1.628906 1.38921,0.01912 1.94929,0.119888 1.68164,0.304688 -0.26125,0.184804 -0.40078,0.408651 -0.41992,0.669921 -0.0111,0.147734 -0.0184,0.20675 -0.0273,0.298829 -0.10397,0.0383 -0.21021,0.09107 -0.32617,0.207031 -0.55441,0.560779 -1.0675,2.117018 -1.53907,4.666015 1.58038,-0.720094 2.32071,-0.987538 2.21875,-0.802734 -0.0257,0.04495 -0.014,0.103003 0.0371,0.173828 -0.002,0.009 -0.007,0.01633 -0.01,0.02539 -0.11471,0.452449 -0.37876,1.438425 -0.79297,2.955078 1.14068,-0.172059 1.51907,-0.214215 1.13672,-0.125 -0.38235,0.08922 -0.57227,0.656083 -0.57227,1.701172 0.47156,-0.01911 0.38242,0.06325 -0.26758,0.248047 -0.64999,0.17843 -0.57441,0.89696 0.22852,2.152343 0.0191,0.184801 -0.0129,0.608741 -0.0957,1.271485 -0.0829,0.662739 -0.0979,1.130282 -0.0469,1.404297 -0.40784,0.541664 -0.46161,1.182665 -0.16211,1.921875 0.30586,0.739209 0.42843,1.314305 0.3711,1.728515 0.40146,0.03188 0.28373,0.05563 -0.35352,0.06836 -0.63088,0.0064 -0.80239,1.197276 -0.51563,3.574218 0.38048,0 0.57388,-0.01326 0.81055,-0.02344 -0.14652,0.41387 -0.32903,1.148515 -0.57226,2.460937 0.0589,0.02947 0.10168,0.04317 0.1582,0.07031 -0.11701,0.131749 -0.23476,0.250032 -0.34766,0.427734 -0.49068,0.873023 -0.41849,1.293572 0.21875,1.261719 0.63726,-0.03186 0.0248,0.457479 -1.83593,1.470703 0.96098,0.399702 1.72035,0.660898 2.33203,0.822266 -0.12796,0.143949 -0.24985,0.285111 -0.44727,0.46875 -0.54803,0.503425 -0.40511,1.45064 0.42969,2.839844 0.0637,0.439704 0.0957,0.917423 0.0957,1.433593 0,0.516174 -0.43072,1.468218 -1.29101,2.857422 1.1343,0.33774 1.65078,0.58678 1.54882,0.746094 -0.10196,0.15294 -0.71098,0.9015 -1.82617,2.246094 1.65048,0.04461 2.34525,0.152163 2.08399,0.324218 -0.25493,0.165685 -0.39446,0.350768 -0.41993,0.554688 -0.0255,0.203919 -0.0609,0.389002 -0.10546,0.554687 -0.0446,0.165685 -0.62844,0.540684 -1.75,1.126954 0.91097,1.20444 1.37028,1.810073 1.37695,1.816406 0,-0.0064 -0.0286,0.124933 -0.0859,0.392578 -0.051,0.267667 -0.10134,0.420771 -0.15234,0.458984 -1.16617,0.267645 -2.61629,0.627634 -4.34961,1.080078 -0.18352,0.04791 -0.36712,0.077 -0.55078,0.117188 -0.0417,-0.04424 -0.0637,-0.08204 -0.10742,-0.126953 -0.98137,0.203909 -1.70134,0.289666 -2.16016,0.257812 -0.24797,-0.02095 -0.39067,-0.003 -0.44531,0.04687 -0.16254,-0.74144 -0.62851,-1.197536 -1.42969,-1.33789 -0.33093,-0.05798 -0.42347,-0.06593 -0.67383,-0.107422 0.0205,-0.02153 0.022,-0.0229 0.043,-0.04492 -0.84117,-0.439704 -0.99427,-0.735732 -0.45898,-0.888672 0.54166,-0.159311 0.4525,-0.828899 -0.26758,-2.007812 -0.40835,-0.248561 -0.73629,-0.385001 -1.02149,-0.460938 -0.0375,-0.206544 -0.0368,-0.342615 -0.0957,-0.589844 -1.04416,-0.51284 -1.79176,-0.737414 -2.25977,-0.6875 0.13227,-0.456907 0.27532,-1.059518 0.4336,-1.875 -0.73921,-0.195423 -1.16493,-0.224813 -1.33203,-0.117187 0.0556,-0.246127 0.069,-0.572069 -0.006,-1.058594 -0.0277,-0.179862 -0.0946,-0.32038 -0.1875,-0.433594 0.18458,-0.230606 0.37759,-0.470893 0.91406,-1.152343 -0.20928,-0.343248 -0.3685,-0.559807 -0.55273,-0.839844 0.57007,-0.727276 0.99204,-1.228937 1.13671,-1.310547 0.16094,-0.09254 0.53716,-0.853276 1.01563,-1.923828 1.50541,-0.825872 4.90753,-2.925924 6.40039,-3.964844 -2.76976,0.58586 -8.21031,1.781778 -9.43555,1.175781 -0.44682,-0.575151 -0.79292,-0.775369 -1.03906,-0.601562 0.10558,-0.161926 0.61132,-0.929036 1.63281,-2.476563 -1.41469,-0.79656 -2.19522,-0.988428 -2.34179,-0.574218 -0.0717,0.199496 -0.1731,0.105995 -0.30274,-0.261719 0.0263,-0.144605 0.0729,-0.320809 0.11719,-0.492188 0.60374,-0.448847 0.98855,-1.054292 1.11328,-1.845703 0.1848,-1.172538 -0.72025,-2.045616 -2.71484,-2.61914 0.0405,0.415266 0.0674,0.628526 0.0918,0.816406 -0.0928,-0.12424 -0.31932,-0.24084 -0.63867,-0.353516 -0.0649,-0.102495 -0.12266,-0.162212 -0.18359,-0.238281 0.0833,-0.04102 0.20023,-0.109879 0.29492,-0.160156 0.0542,0.06003 0.0838,0.09556 0.13867,0.15625 -0.0274,-0.07355 -0.0415,-0.121069 -0.0684,-0.19336 0.16131,-0.08691 0.29576,-0.15332 0.48828,-0.265625 -0.28474,-0.217179 -0.54288,-0.398814 -0.77929,-0.544922 -0.009,-0.02583 -0.0181,-0.04857 -0.0274,-0.07422 0.26953,-0.158975 0.5998,-0.324053 1.04688,-0.5 -0.95588,-0.834795 -0.89192,-1.209794 0.1914,-1.126953 1.08333,0.07647 0.41714,-0.988477 -1.99804,-3.19336 -0.28259,0 -0.47071,0.03025 -0.70117,0.04687 -0.0424,-0.349755 -0.0244,-0.574077 0.0996,-0.572265 0.43333,0 0.76956,-0.891483 1.01172,-2.675782 -1.80979,-0.611759 -2.93674,-0.728053 -3.38281,-0.345703 -0.44306,0.379767 -0.74219,0.650387 -0.90234,0.816406 -0.10978,-0.117386 -0.24781,-0.229682 -0.41211,-0.33789 0.34044,-0.164201 0.82543,-0.374568 1.6289,-0.6875 -0.5799,-1.229889 -0.93649,-2.070988 -1.07031,-2.523438 -0.10339,-0.354483 -0.54118,-0.660534 -1.29883,-0.919922 0.006,-0.0056 0.009,-0.0099 0.0156,-0.01563 1.44157,-0.334012 2.22553,-0.779756 2.27734,-1.349609 0.0637,-0.700975 0.18485,-1.520272 0.36328,-2.457031 -1.07637,-0.731122 -2.0186,-0.997558 -2.83203,-0.814453 -0.17206,-0.259436 -0.34268,-0.542132 -0.51367,-0.833985 0.12108,-0.200733 0.28097,-0.43548 0.47852,-0.703125 0.40146,-0.54166 0.3375,-1.868707 -0.19141,-3.984375 -0.97813,0.115657 -1.6754,0.256525 -2.11719,0.421875 -0.11096,-0.19597 -0.19287,-0.400685 -0.22461,-0.623047 -0.0383,-0.267644 -0.0852,-0.622799 -0.14258,-1.0625 -0.051,-0.439703 -0.16387,-0.946006 -0.33593,-1.519531 -0.16568,-0.579894 -0.44815,-1.037255 -0.84961,-1.375 -0.0701,-0.146565 -0.13064,-0.420797 -0.18164,-0.822265 -0.051,-0.40784 -0.30342,-1.173364 -0.75586,-2.294922 -0.4652,-0.165685 -0.75105,-0.365782 -0.85938,-0.601563 -0.10196,-0.235784 -0.45372,-0.797819 -1.05273,-1.683593 z m 54.73242,4.999999 c -0.0956,0.649995 0.18204,1.013374 0.83203,1.089844 0.65,0.0701 1.02839,-0.08301 1.13672,-0.458984 0.11471,0.446096 0.40591,0.688349 0.87109,0.726562 0.4652,0.03186 0.85037,0.07063 1.15625,0.115235 0.0796,0.0099 0.15241,-0.02159 0.22852,-0.0332 0.10606,0.467786 0.35552,0.889913 0.74023,1.269531 -0.16194,0.856479 -0.11803,1.426053 0.14844,1.6875 0.33774,0.324999 0.77865,0.774131 1.32031,1.347656 0.52405,-0.131727 0.9316,-0.243573 1.28321,-0.345703 0.4836,0.31071 0.7183,0.465123 0.93359,0.607422 0.0439,1.252147 0.26485,1.881037 0.6875,1.8125 0.20166,-0.0327 0.32771,0.129033 0.40234,0.417969 -0.44204,0.24171 -0.80631,0.550878 -1.08007,0.939453 -0.38873,0.560779 -0.58399,1.223582 -0.58399,1.988281 0,0.557676 0.21945,1.016365 0.64649,1.380859 0.23301,1.644979 0.9556,2.606164 2.17773,2.867188 -0.21091,0.02911 -0.39114,0.0487 -0.6543,0.0918 0.47786,0.474964 0.84237,0.828487 1.14649,1.115234 0.23999,1.298042 0.37027,2.278316 0.2793,2.623047 -0.11471,0.452445 0.052,0.869603 0.49804,1.251953 -0.68822,-0.216665 -1.08698,-0.09215 -1.19531,0.373047 -0.10197,0.465194 -0.1761,0.799986 -0.2207,1.003906 -0.0446,0.197546 -0.10856,0.401034 -0.19141,0.611328 -0.0765,0.21029 -0.15883,0.509713 -0.24805,0.898438 -0.33774,0.732835 -0.9046,1.324895 -1.70117,1.777344 -0.79018,0.446074 -2.13759,0.855004 -4.04297,1.224609 0.0956,0.764699 0.0602,1.100933 -0.10547,1.011719 -0.16568,-0.08919 -0.3338,-0.107621 -0.50586,-0.05664 -1.06421,0 -2.09378,0.146319 -3.08789,0.439453 -0.9941,0.28676 -1.9733,0.261568 -2.93554,-0.07617 -1.01323,0.121077 -1.9517,0.159841 -2.81836,0.115235 -0.34429,-0.0204 -0.66333,0.05041 -0.9668,0.171875 0.0553,-0.100694 0.067,-0.207957 0.0293,-0.324219 -0.14018,-0.452449 -0.20414,-0.654496 -0.19141,-0.603516 -0.5799,-0.191174 -0.23832,-0.248345 1.02344,-0.171875 1.26812,0.07647 0.90474,-0.882364 -1.08984,-2.876953 -0.0428,0.04201 -0.0348,0.04684 -0.0684,0.08203 -0.0556,-0.03036 -0.19531,-0.06143 -0.29688,-0.0918 0.62042,0.06667 1.30507,-0.583716 2.05664,-1.96875 -0.2955,-0.293247 -0.5667,-0.515928 -0.83984,-0.746094 0.21637,-0.155214 0.37637,-0.259542 0.70508,-0.515625 0.55411,-0.426955 0.55101,-1.745774 -0.01,-3.957031 -0.33257,0.07596 -0.57602,0.165578 -0.8418,0.251953 0.13868,-0.444178 0.1495,-1.047505 0.0117,-1.830078 0.29952,-0.656369 0.35668,-1.270226 0.17188,-1.84375 -0.0667,-0.216879 -0.10314,-0.387003 -0.13867,-0.556641 0.051,-0.0319 0.0675,-0.0419 0.11914,-0.07422 -0.0584,0.01137 -0.0734,0.0142 -0.13086,0.02539 -0.052,-0.262536 -0.0772,-0.485244 -0.0508,-0.628906 0.15165,-0.476348 0.2242,-0.82268 0.25781,-1.107422 0.0451,-0.0055 0.0673,-0.0034 0.11523,-0.0098 -0.0491,-0.14861 -0.0657,-0.302712 -0.10351,-0.453125 -0.16347,-0.649363 -0.24968,-1.31117 -0.20313,-1.994141 0.0275,-0.365629 -0.0833,-0.648127 -0.28711,-0.875 0.0863,0.05929 0.0882,0.06963 0.19141,0.138672 0.36763,-0.538185 0.51347,-0.939634 0.48437,-1.234375 0.1281,0.102732 0.15475,0.141001 0.33789,0.279297 0.38873,-2.408802 0.20364,-3.576469 -0.55468,-3.5 -0.12028,0.01223 -0.22301,0.04568 -0.33008,0.07422 0.24121,-0.196102 0.3789,-0.450629 0.3789,-0.78125 0,-0.548035 -0.1531,-0.980203 -0.45898,-1.298828 0.17843,0.223039 0.40033,0.195894 0.66797,-0.07813 0.18466,-0.184656 0.21714,-0.391076 0.12109,-0.619141 0.16318,0.144658 0.35105,0.105624 0.56836,-0.154297 0.325,-0.388724 0.53528,-0.217213 0.63086,0.515625 0.74558,-0.15294 1.45198,-0.11078 2.1211,0.125 0.66911,0.22941 1.15361,-0.165948 1.45312,-1.185547 z m -6.55273,7.242188 c 0.13374,0.02255 0.28246,0.04859 0.36718,0.05859 0.0373,0.03157 0.14515,0.104105 0.20118,0.146484 -0.16244,-0.08353 -0.3555,-0.149073 -0.58008,-0.195312 z m -54.10352,10.599609 c 0.017,0.09489 0.0724,0.183395 0.20898,0.253907 0.3951,0.20392 0.11747,0.48977 -0.83203,0.859375 0.55885,0.738968 0.97485,1.180527 1.25586,1.34375 -0.0872,0.0019 -0.11684,-0.0029 -0.24218,0.0039 0,1.363714 0.21705,2.119056 0.65039,2.265625 0.43332,0.146565 0.80154,-0.0487 1.10742,-0.583985 -0.17404,0.314752 -0.26106,0.58362 -0.28125,0.814454 -0.31384,0.121635 -0.77206,0.332555 -1.40039,0.648437 0,1.147049 0.21705,1.6805 0.65039,1.597656 0.4397,-0.08284 -0.001,0.224807 -1.32031,0.925782 0.58521,0.688796 1.12861,1.180838 1.63281,1.496093 -0.0309,0.02437 -0.0231,0.018 -0.0547,0.04297 1.31271,0.541664 1.97891,0.851264 1.99805,0.927734 0.0255,0.07647 0.0691,0.276568 0.13281,0.601563 0.0637,0.324999 0.14464,0.733929 0.24023,1.224609 0.10196,0.490673 0.35244,0.744546 0.75391,0.763672 -0.31225,-0.127449 -0.58988,0.0964 -0.83203,0.669922 -0.15598,0.369415 0.11135,1.261647 0.7168,2.572266 -1.28216,-0.152426 -2.60412,-0.152027 -3.9668,0.01758 -1.47841,0.184801 -2.86263,0.184801 -4.15625,0 -1.09076,-0.142273 -1.98459,-0.01295 -2.68359,0.384765 0.0492,-0.09869 0.10171,-0.19685 0.12109,-0.308593 0.1147,-0.624505 0.22904,-1.202992 0.34375,-1.738282 0.12108,-0.535289 0.2674,-1.040154 0.43945,-1.511718 0.17844,-0.477939 0.38192,-1.031234 0.61133,-1.66211 0.47794,-0.777444 0.79433,-1.618543 0.94727,-2.523437 0.15931,-0.911269 0.67241,-1.979606 1.53906,-3.203125 -0.24369,-0.03161 -0.30594,-0.01988 -0.48047,-0.03516 0.17741,-0.199432 0.33879,-0.535666 0.48047,-1.025391 -0.0255,-0.299509 0.18478,-0.730236 0.63086,-1.291016 0.44607,-0.56715 0.37533,-1.10204 -0.21094,-1.605468 0.43333,0.12745 0.76812,-0.07943 1.00391,-0.621094 0.192,-0.446278 0.3483,-0.872046 0.49804,-1.292969 0.18414,0.05533 0.351,0.05596 0.49805,-0.01172 z"
     style="baseline-shift:baseline;display:inline;overflow:visible;vector-effect:none;fill:#d4e0e3;stroke-linecap:butt;enable-background:accumulate;stop-color:#000000;stop-opacity:1;stroke:none"
     id="path20"
     sodipodi:nodetypes="cccscsccccccccccccccccscccscsccccccccccccccccccccsccccccccccccccccccccccccccccccccccccccccccccsscccccccccccscccccsccsccsccscscccscscccccscccscccscccscccccscscccscscccscccccccccccccccccccccsccsccccccccccccccccscccccccscscccccscccccccccccccccccccscscccccccccccccccccccccscccccccccccccsccccsccccssccccsccccscccccccccsccccccccccccsccccccccccccccccsccccccsccccccccccccccccccccccccccsccsccccccccccccsccccccccccccccccccccccccccccccccscccscccccccccsccccsccccccccsccsccccccccccccccccss" /><circle
     style="fill:#d4e0e3;fill-opacity:1;stroke:#e03513;stroke-width:5;stroke-miterlimit:2;stroke-dasharray:none;stroke-opacity:1;paint-order:fill markers stroke"
     id="path24"
     cx="85.080963"
     cy="84"
     r="68" /><path
     id="path19"
     style="fill:#134f5c;fill-opacity:1;stroke-width:1;stroke-miterlimit:2;stroke-dasharray:none;paint-order:fill markers stroke;stroke:none"
     d="M 85.080078 33.117188 C 84.089268 33.117188 83.099054 33.276238 82.339844 33.595703 L 27.207031 56.794922 C 25.688612 57.433853 25.688611 58.462632 27.207031 59.101562 L 35.003906 62.382812 L 31.324219 85.523438 A 1.231508 1.231508 0 0 0 32.541016 86.949219 L 42.279297 86.949219 A 1.231508 1.231508 0 0 0 43.494141 85.523438 L 40.160156 64.550781 L 49.650391 68.544922 L 49.650391 75.734375 A 35.430902 19.125569 0 0 0 50.523438 79.712891 C 47.441545 85.327129 45.685547 91.767926 45.685547 98.615234 C 45.685547 120.34689 63.348428 138.00977 85.080078 138.00977 C 106.81173 138.00977 124.47656 120.34689 124.47656 98.615234 C 124.47656 91.806301 122.74121 85.398643 119.69141 79.806641 A 35.430902 19.125569 0 0 0 120.51172 75.734375 L 120.51172 68.544922 L 142.95312 59.101562 C 144.47154 58.462632 144.47154 57.433852 142.95312 56.794922 L 87.822266 33.595703 C 87.063057 33.276238 86.070888 33.117188 85.080078 33.117188 z M 53.115234 84.441406 C 53.381861 84.561564 53.657643 84.663904 53.925781 84.78125 A 35.430902 19.125569 0 0 0 68.136719 92.492188 C 67.918381 94.50488 67.789062 96.543645 67.789062 98.615234 C 67.789062 101.70516 68.057431 104.72998 68.517578 107.68945 C 63.150445 108.85167 58.00548 110.58473 53.115234 112.78906 C 51.191389 108.45335 50.09375 103.67069 50.09375 98.615234 C 50.09375 93.559781 51.19139 88.777114 53.115234 84.441406 z M 117.04883 84.443359 C 118.97177 88.778191 120.06836 93.561135 120.06836 98.615234 C 120.06836 103.66977 118.972 108.45398 117.04883 112.78906 C 112.15797 110.5857 107.01165 108.85158 101.64453 107.68945 C 102.10468 104.72999 102.37305 101.70516 102.37305 98.615234 C 102.37305 96.555696 102.24524 94.528665 102.0293 92.527344 A 35.430902 19.125569 0 0 0 116.31641 84.751953 C 116.55867 84.645698 116.8078 84.55191 117.04883 84.443359 z M 72.457031 93.550781 A 35.430902 19.125569 0 0 0 85.080078 94.861328 A 35.430902 19.125569 0 0 0 97.708984 93.597656 C 97.868776 95.250228 97.966797 96.920692 97.966797 98.615234 C 97.966797 101.42965 97.724731 104.18435 97.3125 106.88477 C 93.324992 106.25489 89.246437 105.88867 85.080078 105.88867 C 80.913719 105.88867 76.837131 106.25489 72.849609 106.88477 C 72.43737 104.18435 72.195312 101.42965 72.195312 98.615234 C 72.195312 96.904681 72.294358 95.218576 72.457031 93.550781 z M 85.080078 110.29688 C 88.95056 110.29688 92.740533 110.63299 96.451172 111.20898 C 94.468437 119.58861 90.575699 127.21566 85.222656 133.59961 C 85.178486 133.60061 85.119637 133.60352 85.080078 133.60352 C 85.040518 133.60352 84.983633 133.60061 84.939453 133.59961 C 79.586411 127.21566 75.693671 119.58861 73.710938 111.20898 C 77.421589 110.63299 81.209596 110.29688 85.080078 110.29688 z M 69.371094 112.00977 C 71.171379 119.72272 74.532325 126.80326 79.035156 133.01562 C 68.903028 131.24847 60.290589 125.16956 55.162109 116.69336 C 59.682085 114.67818 64.426989 113.08406 69.371094 112.00977 z M 100.79102 112.00977 C 105.73542 113.08394 110.48132 114.67556 115.00195 116.68945 C 109.87389 125.16738 101.26219 131.24799 91.128906 133.01562 C 95.631424 126.8032 98.990802 119.72256 100.79102 112.00977 z " /><path
     style="font-weight:bold;font-size:79.2063px;line-height:1.1;font-family:Kalam;-inkscape-font-specification:Kalam;letter-spacing:0px;fill:#d4e0e3;stroke-width:2.5;stroke-miterlimit:2;stroke-opacity:0;paint-order:fill markers stroke;stroke:none"
     d="m 167.87142,144.80985 q -1.82175,0 -4.35635,-3.00984 -2.5346,-3.08904 -2.5346,-4.98999 0,-1.90096 1.90095,-7.84143 5.86127,-18.21745 6.2573,-31.920136 -2.69302,-2.851427 -2.69302,-4.514759 0,-2.613808 6.17809,-4.910791 6.2573,-2.376189 11.88095,-2.376189 9.50476,0 14.96999,4.435553 5.54444,4.435553 5.54444,11.326502 0,8.7919 -8.63349,15.92046 -8.55428,7.12857 -21.62332,9.74238 -3.72269,13.38586 -4.91079,15.76205 -1.10888,2.37619 -1.98015,2.37619 z m 25.90046,-43.56346 q 0,-2.534604 -1.82175,-4.11873 -1.82174,-1.663332 -4.91079,-1.663332 -3.08904,0 -8.55428,2.930633 1.58413,2.772219 1.58413,4.989999 0,4.35634 -2.29699,12.91062 7.12857,-2.85142 11.56412,-6.81174 4.43556,-4.03952 4.43556,-8.23745 z m 22.09854,-19.009514 q 1.90095,0 4.91079,3.485077 3.00984,3.485077 3.00984,6.653329 0,3.168252 -0.95048,11.326498 -0.95047,8.07905 -1.98016,12.91063 -6.57412,28.67268 -9.18793,28.67268 -1.74254,0 -4.35634,-2.77222 -2.5346,-2.85143 -2.5346,-4.67317 0,-0.15842 2.13857,-8.23746 2.13857,-8.07904 4.27714,-20.75205 2.21777,-12.752212 2.21777,-24.316332 0,-2.296982 2.4554,-2.296982 z m 43.56352,40.553624 q 1.42572,1.2673 1.42572,2.29698 0,1.02969 -0.95048,4.27714 -0.95048,3.24746 -1.2673,5.06921 -0.31683,1.74254 -0.55445,2.77222 -0.15841,1.02968 -0.23761,1.66333 -0.0792,0.55444 -0.31683,1.42571 -0.15841,0.87127 -0.31682,1.42572 -0.0792,0.47523 -0.31683,1.18809 -0.15841,0.63365 -0.39603,1.02968 -0.23762,0.31683 -0.55445,0.71286 -0.47523,0.63365 -1.58412,0.63365 -1.10889,0 -2.77222,-2.21778 -1.58413,-2.21777 -2.37619,-5.38603 -7.44539,7.60381 -12.5146,7.60381 -3.40587,0 -7.36618,-3.7227 -3.96032,-3.8019 -3.96032,-7.52459 0,-3.80191 3.40587,-10.77206 3.40587,-6.97016 9.26714,-12.91063 5.94047,-5.94047 11.72253,-5.94047 3.32667,0 7.68301,3.88111 4.35635,3.88111 4.35635,7.12856 0,3.16826 -2.37619,7.36619 z m -23.04903,12.5146 q 3.16825,0 8.39587,-4.27714 5.30682,-4.35635 6.57412,-10.93047 0.0792,-0.95048 1.34651,-1.10889 -0.23762,-4.51476 -1.50492,-4.51476 -3.16826,0 -7.12857,4.11873 -3.88111,4.11872 -6.41571,8.7919 -2.4554,4.67317 -2.4554,6.89094 0,0.63365 0.15842,0.87127 0.23762,0.15842 1.02968,0.15842 z m 59.32554,-28.9103 q 0.47524,-1.98016 2.61381,-1.98016 2.13857,0 4.35634,2.69301 2.29698,2.69302 2.29698,6.09889 0,1.98016 -1.42571,6.2573 -1.42571,4.27714 -2.05936,6.09888 -0.55445,1.82175 -1.66334,4.99 -1.10888,3.08904 -2.05936,5.78206 -0.87127,2.61381 -2.45539,7.04936 -1.50492,4.43555 -2.77222,8.23745 -2.4554,7.12857 -6.01968,11.00968 -3.48508,3.88111 -9.10873,3.88111 -5.62364,0 -10.0592,-3.00984 -4.43555,-2.93063 -4.43555,-5.94047 0,-1.82175 1.58413,-4.03953 1.66333,-2.21777 2.77222,-2.21777 1.18809,0 3.00984,1.82174 1.90095,1.90095 3.8811,3.7227 1.98016,1.90095 3.48508,1.90095 1.02968,0 1.66333,-0.95048 0.71286,-0.95047 1.10889,-1.74253 0.47524,-0.71286 0.95048,-2.05937 0.47523,-1.2673 0.87127,-2.37619 0.39603,-1.10888 0.95047,-2.93063 0.55445,-1.82174 0.95048,-3.24746 1.3465,-4.27714 2.29698,-7.6038 -2.61381,3.40587 -5.38603,5.46523 -2.77222,1.98016 -5.14841,1.98016 -2.29698,0 -5.78206,-3.48508 -3.40587,-3.56428 -3.40587,-7.76221 0,-4.27714 1.82175,-11.40571 1.90095,-7.12857 4.67317,-12.67301 2.77222,-5.54444 4.91079,-5.54444 2.45539,0 4.59396,2.13857 2.21778,2.05936 2.21778,4.03952 0,1.90095 -1.98016,6.17809 -1.90095,4.27714 -3.88111,9.34635 -1.98015,5.0692 -1.98015,8.63348 0,0.47524 0.39603,0.47524 1.02968,0 4.35634,-3.8019 3.32667,-3.88111 7.4454,-10.93047 4.19793,-7.12857 6.41571,-14.09872 z m 42.92984,15.1284 q 1.18809,1.34651 1.18809,3.24746 0,1.90095 -1.58412,4.67317 -1.98016,4.75238 -3.48508,11.80174 -1.50492,7.04936 -3.00984,11.24729 -1.42571,4.27714 -3.16825,7.28698 -1.66333,3.00984 -4.59397,4.99 -2.93063,1.98016 -6.73253,1.98016 -5.30683,0 -9.50476,-3.48508 -4.19793,-3.48508 -4.19793,-6.01968 0,-2.45539 1.3465,-4.51476 1.34651,-1.98016 2.4554,-1.98016 1.18809,0 2.21778,1.2673 1.10888,1.26731 1.98015,2.69302 0.95048,1.50492 2.4554,2.77222 1.50492,1.2673 3.32666,1.2673 1.82175,0 3.32667,-2.37619 1.50492,-2.37619 2.29698,-5.14841 1.98016,-6.49491 2.4554,-9.26713 -5.38603,3.32666 -8.7919,3.32666 -3.32667,0 -6.49492,-3.64349 -3.16825,-3.7227 -3.16825,-6.97015 0,-3.32667 1.74254,-8.23746 1.82174,-4.99 4.59396,-9.90079 2.85143,-4.98999 7.12857,-8.55428 4.35635,-3.56428 8.71269,-3.56428 2.93063,0 4.99,1.50492 2.05936,1.42571 3.00984,3.88111 1.66333,4.27714 1.66333,9.66317 0,0.79206 -0.15841,2.05936 z m -21.94015,12.75221 q 0,1.02969 0.87127,1.02969 2.29698,0 7.44539,-4.19794 5.14841,-4.19793 6.89095,-8.31666 v -1.50492 q 0,-5.14841 -0.95047,-6.2573 -0.47524,-0.55444 -1.2673,-0.55444 -3.80191,0 -8.39587,7.99984 -4.59397,7.99983 -4.59397,11.80173 z m 33.10832,-16.47491 -0.47524,-8.95031 q 0,-4.43555 2.77222,-4.43555 1.58413,0 3.08905,1.18809 1.58412,1.1881 2.37619,3.7227 2.69301,-2.37619 5.86126,-3.8019 3.24746,-1.50492 5.70286,-1.50492 5.78205,0 5.78205,2.77222 0,1.42571 -0.55444,2.13857 -0.47524,0.63365 -0.79206,0.95047 -0.23762,0.31683 -0.95048,0.87127 -0.63365,0.47524 -0.95047,0.71286 -1.82175,1.18809 -2.61381,1.66333 -3.56428,2.21778 -6.09889,5.38603 -2.5346,3.08905 -3.8019,8.63349 -2.13857,9.10872 -4.19793,13.62348 -1.98016,4.43555 -4.51476,4.43555 -2.4554,0 -3.7227,-2.37619 -1.18809,-2.37618 -1.18809,-4.43555 0,-2.13857 1.50492,-6.3365 1.58412,-4.19794 2.13857,-7.20778 0.63365,-3.08904 0.63365,-7.04936 z m 35.48438,19.40555 q 4.27714,-1.90095 7.44539,-7.68301 3.16825,-5.78206 3.16825,-10.85127 0,-5.0692 -1.42571,-6.97015 -3.40587,1.98016 -6.81174,8.31666 -3.32667,6.3365 -3.32667,11.16809 0,4.75238 0.95048,6.01968 z m -11.56412,-5.22762 q 0,-9.90079 6.09888,-18.77189 6.17809,-8.87111 12.19777,-8.87111 6.01968,0 10.13841,4.27714 4.11873,4.19794 4.11873,10.21762 0,5.94047 -2.85143,12.11856 -2.85143,6.17809 -7.99984,10.29682 -5.14841,4.03952 -11.00967,4.03952 -4.35635,0 -7.5246,-3.88111 -3.16825,-3.88111 -3.16825,-9.42555 z m 64.31547,-25.58363 q 0.63365,-1.98016 2.5346,-1.98016 1.90095,0 4.35635,3.24746 2.5346,3.24746 2.5346,5.62364 0,0.87127 -3.64349,11.64333 -3.64349,10.77206 -5.62365,17.02936 -1.10889,3.32666 -3.7227,3.32666 -1.58412,0 -2.69301,-1.10889 -1.02968,-1.18809 -1.02968,-3.64349 0,-2.45539 0.95047,-6.97015 -8.15825,11.72253 -12.98983,11.72253 -2.5346,0 -6.09888,-3.24746 -3.56429,-3.32666 -3.56429,-6.41571 0,-7.6038 4.27714,-19.40554 4.35635,-11.80174 8.15825,-11.80174 2.29698,0 4.03952,2.05936 1.82175,2.05937 1.82175,4.51476 0,0.95048 -1.98016,5.30682 -6.01968,13.06904 -6.01968,18.45507 0,0.47524 0.39603,0.47524 1.1881,0 4.43556,-3.7227 3.32666,-3.8019 7.36618,-10.77205 4.11873,-7.04936 6.49492,-14.33634 z m 39.84077,-1.98016 q 4.11872,0 7.20777,3.7227 3.16825,3.64349 3.16825,7.84142 0,6.73253 -2.21777,14.09872 -2.13857,7.28698 -4.75238,11.24729 -2.5346,3.96032 -5.22762,3.96032 -2.61381,0 -2.61381,-3.7227 0,-2.85142 2.61381,-11.48491 1.98016,-7.12857 1.98016,-10.21761 0,-3.08905 -0.79206,-3.08905 -1.02969,0 -2.05937,1.02968 -0.95047,1.02969 -1.58412,1.82175 -0.63365,0.79206 -1.50492,2.05936 -0.79207,1.1881 -1.42572,2.21778 -0.55444,0.95047 -1.50492,2.5346 -0.87127,1.50492 -1.42571,2.5346 -0.55444,0.95048 -1.42571,2.5346 -7.36619,13.7819 -11.56412,13.7819 -1.66333,0 -4.19794,-2.85143 -2.5346,-2.93063 -2.5346,-4.27714 0,-0.87127 1.10889,-3.72269 1.1881,-2.93064 1.66333,-4.43556 0.55445,-1.58412 0.87127,-3.32666 0.39603,-1.74254 0.63365,-3.7227 0.23762,-2.05936 0.31683,-3.16825 0.15841,-1.10889 0.31682,-3.48508 0.71286,-10.29681 1.1881,-11.4057 0.55444,-1.10889 1.18809,-1.10889 3.00984,0 5.78206,2.5346 2.77222,2.4554 2.77222,4.51476 0,4.91079 -2.5346,14.09872 5.14841,-9.02952 9.34634,-14.73237 4.27714,-5.78206 7.20778,-5.78206 z m 48.55351,-22.177764 q 1.90095,0 4.99,3.485077 3.08904,3.405871 3.08904,6.41571 0,1.50492 -2.77222,12.514597 -2.77222,11.00967 -3.32666,13.30666 -6.33651,27.32617 -9.26714,27.32617 -1.66333,0 -3.7227,-1.98016 -2.05936,-1.98016 -2.05936,-3.88111 0,-0.39603 0.0792,-0.63365 -7.92063,6.49492 -11.40571,6.49492 -3.40587,0 -6.65333,-3.64349 -3.16825,-3.7227 -3.16825,-6.73254 0,-3.00983 0.79206,-6.65332 0.87127,-3.7227 2.61381,-7.84143 1.74254,-4.11873 3.96031,-7.68301 2.29699,-3.64349 5.46524,-5.94047 3.24746,-2.37619 6.65333,-2.37619 5.0692,0 8.31666,5.14841 4.27714,-18.771894 4.11873,-24.949985 0,-2.376189 2.29698,-2.376189 z m -23.36586,52.989014 q 1.98016,0 6.65333,-3.40587 4.75238,-3.40587 7.04936,-8.63349 -0.0792,-0.63365 -0.0792,-2.77222 0,-2.13857 -1.42571,-4.03952 -1.42571,-1.90095 -2.61381,-1.90095 -2.37619,0 -4.59396,2.5346 -2.13857,2.5346 -3.40587,6.01968 -2.69302,7.36619 -2.69302,11.16809 0,0.63365 0.15842,0.87127 0.23761,0.15841 0.95047,0.15841 z"
     id="text27"
     aria-label="Playground" /></svg>
