<?xml version="1.0" encoding="UTF-8" standalone="no"?>
<svg
   version="1.1"
   viewBox="0 0 997.40151 168"
   fill="none"
   stroke="none"
   stroke-linecap="square"
   stroke-miterlimit="10"
   id="svg12"
   sodipodi:docname="logo.svg"
   inkscape:version="1.4 (86a8ad7, 2024-10-11)"
   xml:space="preserve"
   width="997.40149"
   height="168"
   xmlns:inkscape="http://www.inkscape.org/namespaces/inkscape"
   xmlns:sodipodi="http://sodipodi.sourceforge.net/DTD/sodipodi-0.dtd"
   xmlns="http://www.w3.org/2000/svg"
   xmlns:svg="http://www.w3.org/2000/svg"><defs
     id="defs12"><inkscape:path-effect
       effect="offset"
       id="path-effect14"
       is_visible="true"
       lpeversion="1.3"
       linejoin_type="miter"
       unit="in"
       offset="-0.05"
       miter_limit="4"
       attempt_force_join="false"
       update_on_knot_move="true" /><inkscape:path-effect
       effect="fillet_chamfer"
       id="path-effect24"
       is_visible="true"
       lpeversion="1"
       nodesatellites_param="F,0,0,1,0,2.9999998,0,1 @ F,0,0,1,0,2.9999998,0,1 @ F,0,0,1,0,2.9999998,0,1 @ F,0,0,1,0,2.9999998,0,1"
       radius="3"
       unit="px"
       method="auto"
       mode="F"
       chamfer_steps="1"
       flexible="false"
       use_knot_distance="true"
       apply_no_radius="true"
       apply_with_radius="true"
       only_selected="false"
       hide_knots="false" /><inkscape:path-effect
       effect="fillet_chamfer"
       id="path-effect21"
       is_visible="true"
       lpeversion="1"
       nodesatellites_param="F,0,0,1,0,2.9999998,0,1 @ F,0,0,1,0,2.9999998,0,1 @ F,0,0,1,0,2.9999998,0,1 @ F,0,0,1,0,2.9999998,0,1"
       radius="3"
       unit="px"
       method="auto"
       mode="F"
       chamfer_steps="1"
       flexible="false"
       use_knot_distance="true"
       apply_no_radius="true"
       apply_with_radius="true"
       only_selected="false"
       hide_knots="false" /><inkscape:path-effect
       effect="fill_between_many"
       method="originald"
       linkedpaths="#text24,0,1"
       id="path-effect31"
       is_visible="true"
       lpeversion="0"
       join="true"
       close="true"
       autoreverse="true" /></defs><sodipodi:namedview
     id="namedview12"
     pagecolor="#ffffff"
     bordercolor="#000000"
     borderopacity="0.25"
     inkscape:showpageshadow="2"
     inkscape:pageopacity="0.0"
     inkscape:pagecheckerboard="0"
     inkscape:deskcolor="#d1d1d1"
     inkscape:zoom="1.4142136"
     inkscape:cx="793.72734"
     inkscape:cy="40.305085"
     inkscape:window-width="1394"
     inkscape:window-height="1002"
     inkscape:window-x="-5"
     inkscape:window-y="0"
     inkscape:window-maximized="0"
     inkscape:current-layer="svg12"
     showguides="false"><inkscape:page
       x="0"
       y="0"
       width="997.40149"
       height="168"
       id="page31"
       margin="0"
       bleed="0" /></sodipodi:namedview><clipPath
     id="p.0"><path
       d="M 0,0 H 521.50134 V 168 H 0 Z"
       clip-rule="nonzero"
       id="path1" /></clipPath><path
     d="m 217.26248,35.356493 c -2.65733,0 -4.33805,0.507326 -5.04492,1.520507 -0.69781,1.013226 -0.87439,1.729806 -0.53029,2.150391 -1.09924,-0.124275 -1.80565,0.372835 -2.12109,1.491211 -0.31543,1.118369 -0.81763,2.107487 -1.50586,2.967773 -0.59264,0.592642 -0.89063,1.152978 -0.89063,1.678711 0,0.525761 -0.004,0.815727 -0.015,0.873047 -0.0956,0.258089 -0.26202,0.609126 -0.50099,1.048828 -0.23898,0.43014 -0.47371,0.98755 -0.70313,1.675781 -0.23894,0.946318 -0.46352,1.715952 -0.67383,2.308594 -0.20072,0.592643 -0.49578,1.281612 -0.88768,2.06543 -0.19118,0.516172 -0.43611,0.990759 -0.73242,1.420899 -0.29633,0.420585 -0.85157,1.20256 -1.66407,2.349609 1.12792,0.516172 1.40556,0.685519 0.83204,0.503905 -0.56396,-0.191173 -0.97022,0.162027 -1.21875,1.060548 -0.17559,0.952188 -0.13516,1.611009 0.0996,2.009765 -0.18637,0.121635 -0.30901,0.27043 -0.28709,0.483399 0.0669,0.640432 0.0873,1.046692 0.0587,1.21875 0.34411,0.08604 0.24308,0.250293 -0.30176,0.489258 -0.54484,0.22941 -0.81738,1.089891 -0.81738,2.581054 0.30587,0 0.2027,0.262353 -0.31348,0.788087 -0.50661,0.525727 -0.18611,1.017742 0.96094,1.476562 -1.26175,-0.162496 -1.97618,0.248852 -2.13867,1.233398 -0.16251,0.984555 -0.30641,1.718563 -0.43067,2.206054 -0.21984,0.592643 -0.55269,1.216217 -1.00195,1.866212 -0.4397,0.640438 -0.798,1.379533 -1.0752,2.220703 -0.36323,0.736026 -0.43881,1.311633 -0.22851,1.722656 0.21033,0.411001 0.18993,0.605028 -0.0587,0.585937 -0.10515,0.363232 -0.42566,0.946091 -0.96094,1.749024 -0.5353,0.802935 -0.85578,2.155431 -0.96093,4.057617 -0.0669,1.290433 -0.42521,2.680711 -1.0752,4.171875 -0.64043,1.491164 -0.96095,2.970133 -0.96095,4.432617 -0.26763,0.860287 -0.50455,1.786165 -0.71484,2.780274 -0.20074,0.994109 -0.38242,1.897464 -0.54492,2.70996 -0.17205,0.219849 -0.45475,0.71695 -0.84667,1.491211 -0.38235,0.764703 -0.0618,1.54961 0.96093,2.35254 -1.07058,-0.46838 -1.71668,-0.30196 -1.93652,0.50097 -0.21982,0.79338 -0.36882,1.40384 -0.44532,1.83399 -0.26764,1.16616 -0.67899,2.35733 -1.23339,3.57129 -0.54486,1.2044 -1.03177,2.53437 -1.46191,3.9873 -0.22937,0.70735 -0.25703,1.22697 -0.0849,1.56153 0.1816,0.32499 -0.0582,0.55974 -0.71778,0.70312 -0.26765,1.91175 -0.72186,3.41323 -1.3623,4.50293 -0.63089,1.08014 -1.15052,2.1928 -1.56153,3.33984 -2.79116,2.80071 -9.18809,4.6554 -19.18652,5.56348 3.11615,3.11615 4.93304,4.45337 5.44922,4.01367 0.50661,-0.4397 0.70356,-7.4e-4 0.58887,1.31836 3.14482,-0.44926 5.87233,-0.82498 8.18554,-1.13086 2.32277,-0.30588 5.10117,-0.41708 8.33202,-0.33105 1.03235,-0.62133 1.79181,-1.00213 2.27931,-1.14551 0.17186,-0.0505 0.37304,-0.20404 0.58886,-0.4043 0.48829,0.37892 1.42105,0.99126 2.98243,1.93653 1.08969,-0.61179 1.55625,-0.9272 1.40331,-0.94629 1.1375,0.62132 2.21745,0.72234 3.24024,0.30175 1.03232,-0.42057 1.58756,-0.64513 1.66406,-0.67382 0.59265,0.23897 1.42552,0.31238 2.4961,0.21679 1.08014,-0.0956 2.36939,-0.28236 3.87011,-0.55957 1.32867,-1.41469 1.83087,-2.36602 1.50586,-2.85351 -0.31543,-0.49706 -0.3961,-1.81685 -0.24316,-3.95801 -3.23085,0.69778 -5.57754,0.90708 -7.04004,0.62988 -1.45293,-0.20071 -2.59104,-0.20798 -3.41309,-0.0264 -0.82204,0.17206 -1.56406,-0.0504 -2.22363,-0.66211 -0.36325,-0.3059 -0.55219,-0.46723 -0.57129,-0.48632 -0.0105,-0.0191 -0.0175,-0.57437 -0.0175,-1.66407 -0.61132,-0.51617 -0.92164,-0.8214 -0.93163,-0.91699 0,-0.0956 0.0836,-0.43351 0.24609,-1.0166 0.16249,-0.59264 0.35143,-1.3245 0.57129,-2.19434 0.22941,-0.8794 0.17635,-1.54076 -0.15821,-1.98047 0.64044,-0.17205 1.014,-0.65898 1.11914,-1.46191 0.11475,-0.80293 0.2688,-1.48681 0.45996,-2.05078 1.00368,-1.4147 1.7784,-3.31226 2.32324,-5.69238 0.12435,-0.46839 0.34376,-1.05124 0.65919,-1.74903 0.32499,-0.69779 -0.0762,-1.41437 -1.20411,-2.15039 0.76052,0.47693 1.18068,0.63858 1.31543,0.5332 0.0105,0.037 0.005,0.0301 0.0175,0.0703 0.95589,-0.28676 2.09908,-0.49606 3.42774,-0.62988 1.32867,-0.14338 2.40862,-0.19644 3.24024,-0.1582 1.17571,0.78381 2.52312,1.00838 4.04296,0.67383 1.5294,-0.34412 2.79614,-0.55635 3.7998,-0.63282 0.57353,0 1.2574,0.0429 2.05078,0.12891 0.80294,0.0765 1.61036,0.1172 2.42285,0.1172 1.32741,0.10714 2.43034,-0.0839 3.35742,-0.50684 0.0571,0.45681 0.12555,1.00188 0.21094,1.6377 0.0861,0.64043 0.22484,1.3948 0.41601,2.26465 0.20074,0.86028 0.86212,1.06233 1.98049,0.60351 -1.19484,0.94632 -1.59602,1.89255 -1.20411,2.83887 0.40147,0.94631 0.85569,1.57714 1.3623,1.89258 0.36324,1.53895 0.95844,3.08332 1.79003,4.63183 0.84118,1.54852 1.78233,2.81525 2.82424,3.79981 -1.285,-0.0862 -1.58066,1.62459 -0.99024,4.94238 -0.24953,0.16367 -0.50732,0.39419 -0.78516,0.76465 -0.40146,0.36323 -1.19147,0.73386 -2.36718,1.11621 -1.16618,0.38235 -2.17565,0.57422 -3.02637,0.57422 0,0.53529 -0.1083,0.61086 -0.32813,0.22851 -0.21985,-0.39191 -0.70677,-0.58593 -1.46192,-0.58593 -0.94631,0 -1.96089,0.14605 -3.041,0.44238 -1.08015,0.29632 -2.53367,1.53545 -4.35938,3.71484 2.1985,1.84488 3.79083,2.7962 4.77538,2.85352 0.99412,0.0669 1.8822,0.0567 2.66602,-0.0293 0.79338,-0.086 1.46491,-0.16161 2.00977,-0.22852 0.5544,-0.0574 1.23536,0.0335 2.04785,0.27247 1.12794,-0.47791 2.08944,-0.68721 2.88282,-0.62989 0.79338,0.0669 1.49253,0.6999 2.09472,1.9043 1.89264,0 3.15937,-0.14606 3.7998,-0.44238 0.64999,-0.29632 1.12673,-0.54125 1.43262,-0.73243 0.30592,-0.18167 0.47743,-0.27761 0.51562,-0.2871 0.0383,0 0.38635,0.13881 1.04591,0.41601 1.16617,-0.35366 2.30426,-0.5477 3.41308,-0.58594 1.10882,-0.0382 2.13571,-0.14434 3.08203,-0.3164 -0.10515,-0.46838 -0.0694,-0.42042 0.1026,0.14355 0.18162,0.56396 1.33713,0.84668 3.46875,0.84668 0.63087,-0.77426 1.12289,-1.23866 1.47656,-1.3916 0.35368,-0.14339 0.67417,-0.19645 0.96094,-0.15821 1.26174,0 2.25088,-0.0807 2.96777,-0.24316 0.53121,-0.12041 1.05546,-0.18268 1.57617,-0.21387 -0.18131,0.31033 -0.42921,0.68508 -0.80272,1.17481 2.92497,0 4.7818,-0.0581 5.57518,-0.17286 0.79338,-0.11473 1.88861,-0.10452 3.28419,0.0293 0.3441,-0.78381 0.64209,-1.1145 0.89063,-0.99023 0.25808,0.11471 0.64397,0.17285 1.16014,0.17285 0.52574,0 1.18417,-0.0255 1.97754,-0.0733 0.79336,-0.0574 1.20471,-0.4636 1.2334,-1.21875 0.48749,0.78382 1.19174,1.17774 2.10938,1.17774 0.9272,0 1.98171,-0.0734 3.167,-0.2168 0.68823,0.14337 1.52619,0.2168 2.51074,0.2168 0.98454,0 1.94096,-0.0204 2.86815,-0.0586 0.93677,-0.0478 1.81977,-0.0907 2.65137,-0.12891 0.83162,-0.0478 1.8963,-0.15391 3.19629,-0.31641 1.83528,-0.14335 3.65219,-0.15063 5.44922,-0.0264 1.79704,0.12425 3.55071,0.10899 5.26173,-0.0439 0.5544,0.10515 1.47303,0.29702 2.75389,0.57422 1.28088,0.27721 2.24747,0.17109 2.89748,-0.31641 0.25809,0.0574 0.75735,0.0726 1.50292,0.0439 0.74558,-0.0382 1.69691,0.26191 2.85351,0.90235 0.46676,-0.18842 0.80754,-0.39927 1.05176,-0.62989 -0.0872,0.37998 -0.16017,0.62969 -0.27539,1.24512 1.85439,-0.91764 3.07826,-1.3239 3.6709,-1.21875 0.59264,0.10515 2.32595,0.42565 5.20313,0.96094 -0.25814,-2.03601 -0.23773,-3.17119 0.0587,-3.41016 0.30588,-0.24853 0.23756,-1.407 -0.20215,-3.47168 -2.58086,-0.7169 -4.9857,-1.16095 -7.21289,-1.33301 -2.22719,-0.17206 -4.00336,-0.19241 -5.33203,-0.0586 -0.96543,-0.48749 -1.87388,-0.59577 -2.7246,-0.32812 -0.84119,0.25809 -1.21475,0.38672 -1.11915,0.38672 -0.43014,-0.24853 -0.99264,-0.56903 -1.69043,-0.96094 -0.46117,-0.25901 -1.00402,-0.29371 -1.61133,-0.14355 0.44334,-0.25468 0.6143,-0.56497 0.44825,-0.94629 -0.25809,-0.60219 -0.45212,-1.07894 -0.58595,-1.43262 -0.1242,-0.3537 -0.31612,-0.56084 -0.57421,-0.61816 -0.25808,-0.0574 -0.0183,-0.23904 0.71778,-0.54492 -0.25812,-1.37646 -0.40712,-2.47894 -0.44532,-3.31055 -0.0286,-0.8316 -0.0817,-1.78293 -0.15821,-2.85351 0,-0.23898 0.048,-0.59218 0.14355,-1.06055 0.10515,-0.46838 0.22359,-1.00327 0.35742,-1.60547 0.1434,-0.6022 0.2168,-1.36459 0.2168,-2.28223 0,-0.92719 -0.60831,-1.28548 -1.82228,-1.07519 1.35735,-0.61176 1.94529,-1.37122 1.76369,-2.2793 -0.18162,-0.90808 -0.55518,-1.73802 -1.11915,-2.49316 1.24009,-1.41457 1.76515,-2.202267 1.59961,-2.381837 0.20178,-0.0882 0.19196,-0.0762 0.43652,-0.18457 -1.78748,-0.0382 -2.36016,-0.129089 -1.71972,-0.272459 0.64047,-0.143385 0.98133,-0.421009 1.01953,-0.832032 0.0479,-0.411029 0.0703,-0.779495 0.0703,-1.104492 0,-0.324996 0.0756,-1.33956 0.22853,-3.041016 -0.27978,-0.264115 -0.52095,-0.455589 -0.75587,-0.632813 0.33279,-0.12786 0.67392,-0.26095 1.10156,-0.45703 -1.50072,-0.277202 -1.99272,-0.5192 -1.47656,-0.729492 0.30303,-0.123465 0.3677,-0.346459 0.24902,-0.644532 0.30534,0.144855 0.62827,0.241235 0.98437,0.228515 1.0706,-0.04777 2.07714,-0.07325 3.02345,-0.07325 0.94632,0.06692 1.9456,0.205724 2.99707,0.416016 1.06101,0.210292 2.15625,0.27353 3.28418,0.1875 0.86985,0 1.45779,-0.154081 1.76367,-0.459961 0.30588,-0.315435 0.87856,0.05813 1.71973,1.119141 0.60219,-1.319106 1.01354,-1.790763 1.23339,-1.417969 0.22941,0.363232 0.68364,0.504205 1.3623,0.427735 2.61909,0.38235 5.10461,0.445588 7.45607,0.1875 2.361,-0.258084 4.87411,-0.861299 7.54101,-1.807619 l 1.67871,-0.64453 c 0.69778,-0.324997 1.45215,-0.544474 2.26465,-0.659179 0.81249,-0.124261 1.79142,-0.472374 2.93847,-1.0459 0.87941,-0.621314 1.46226,-1.118416 1.74903,-1.491209 0.29633,-0.372791 0.83415,-0.602447 1.60839,-0.688478 0.31545,-0.736052 0.72896,-1.132132 1.24512,-1.189454 0.52574,-0.05736 1.29027,-0.501394 2.29395,-1.333006 0.25806,-0.621315 0.26826,-1.186743 0.0293,-1.69336 -0.22941,-0.516171 0.50244,-0.296694 2.19434,0.659179 -0.0382,-1.691895 -0.0105,-2.633044 0.0849,-2.824218 0.10515,-0.200738 0.24906,-0.463089 0.43066,-0.788086 0.18162,-0.324996 0.50211,-0.945642 0.96093,-1.863281 0.22182,-0.434572 0.15315,-0.726743 -0.18456,-0.884766 0.33635,-0.09922 0.52608,-0.268099 0.50097,-0.536133 -0.0573,-0.611759 0.4194,-1.018012 1.43262,-1.21875 0,-1.175721 0.10095,-1.983148 0.30176,-2.422851 0.0465,-0.10416 0.0448,-0.202891 0.012,-0.298828 0.19812,-0.01572 0.3775,-0.07506 0.51856,-0.231446 0.44925,-0.497055 1.05972,-1.064646 1.83398,-1.705078 v -0.003 c 0.41103,-2.274981 0.19155,-3.357102 -0.65918,-3.251952 -0.84117,0.10515 -0.48796,-1.293156 1.06054,-4.189454 -0.74653,0.589529 -1.09916,0.908862 -1.5996,1.330079 0.11266,-0.252717 0.12135,-0.341408 0.28125,-0.66797 -0.62132,-1.156611 -0.72451,-2.337591 -0.31348,-3.541992 -0.98457,-0.697785 -1.02527,-1.328608 -0.11715,-1.892578 -0.80295,-1.462484 -1.34801,-2.900736 -1.63478,-4.31543 -0.2772,-1.424255 -1.25613,-2.097954 -2.93847,-2.021484 0.97499,-0.621315 1.23009,-1.207103 0.76172,-1.751954 -0.45882,-0.544845 -0.85275,-0.97362 -1.17774,-1.289062 -0.31544,-0.324997 -0.70133,-0.415845 -1.16015,-0.272461 -0.45882,0.143385 -0.1812,-0.0485 0.83202,-0.574219 -0.96543,-1.414693 -1.65949,-1.949584 -2.08006,-1.605469 -0.4206,0.334554 -0.55431,-0.220695 -0.40137,-1.664062 -0.79341,-0.03824 -1.23236,-0.227174 -1.31837,-0.571289 -0.0765,-0.344113 -0.60411,-1.015656 -1.57909,-2.009766 -1.67279,-0.353673 -2.85084,-0.578238 -3.53907,-0.673827 -0.67866,-0.10515 -1.36256,-0.912571 -2.05079,-2.422852 -1.06105,1.711011 -1.61121,1.971207 -1.6494,0.776367 -0.0383,-1.194846 -0.54043,-0.879432 -1.50586,0.94629 0.44925,-0.898521 0.34822,-1.496645 -0.30176,-1.79297 -0.64999,-0.296317 -1.39419,-0.498366 -2.23536,-0.603514 -2.1985,-0.411024 -4.47471,-0.690812 -6.82616,-0.84375 -2.3419,-0.162503 -4.65589,-0.344193 -6.94043,-0.544923 -0.50661,0.191142 -1.03131,0.218784 -1.57617,0.08496 -0.53529,-0.133815 -1.36817,-0.343121 -2.49611,-0.629883 -1.07056,0.382317 -2.13018,0.409957 -3.18163,0.08496 -1.05146,-0.324997 -2.5275,-0.393324 -4.42968,-0.202148 -2.1794,0.152995 -4.55664,0.150775 -7.12794,-0.0117 -2.56175,-0.162502 -5.14535,0.03662 -7.75488,0.600585 -0.0479,0 -0.23967,-0.04797 -0.57422,-0.143549 -0.325,-0.105151 -0.79957,-0.206168 -1.4209,-0.301758 -1.08012,-0.13383 -2.02128,-0.09095 -2.82422,0.128909 -0.80293,0.210293 -1.53477,0.316406 -2.19433,0.316406 -0.65,0.05736 -1.31861,-7.95e-4 -2.00684,-0.172851 -0.67867,-0.181617 -1.51371,-0.320425 -2.50782,-0.416016 -1.03233,-0.114705 -1.90299,-0.06889 -2.61034,0.131835 -0.69779,0.200793 -1.29082,0.195644 -1.77832,-0.0147 -2.36101,0 -4.40246,0.09594 -6.12305,0.287109 -1.72056,0.181614 -3.78965,0.0755 -6.20801,-0.316405 -0.63087,0.487492 -1.40775,0.797818 -2.33495,0.931641 -0.93675,0.12426 -1.76963,1.605391 -2.4961,4.444335 1.63373,1.214049 2.90048,1.527135 3.81152,0.966796 -0.33327,0.667172 -0.0765,1.650421 0.79103,2.961915 1.33822,-0.458826 2.13037,-0.668122 2.37889,-0.629883 0.25809,0.02868 1.02048,-0.07234 2.28223,-0.301758 0.52573,-0.516161 1.03517,-0.750904 1.53223,-0.703125 0.49705,0.04779 1.1635,-0.368643 1.99512,-1.248046 0,0.94631 0.3808,1.420897 1.1455,1.420897 0.76469,0 1.16076,-0.348112 1.18945,-1.045897 0.0955,0.860259 0.43646,1.278855 1.01954,1.259764 0.59263,-0.02868 0.59263,0.857255 0,2.654298 0.95649,-0.468487 1.54451,-0.798906 2.0625,-1.101562 0.0519,0.02725 0.1188,0.05076 0.24609,0.05274 0.61176,0.0096 0.2433,0.622951 -1.10449,1.836913 0.60804,0.243984 1.03369,0.427211 1.42675,0.600587 -0.20301,0.424965 -0.37485,0.963871 -0.49511,1.708008 -0.0948,0.626019 0.29787,1.38094 1.08984,2.24121 -0.47299,0.256702 -0.8448,0.486558 -1.3623,0.75586 0.5195,0 0.88994,-0.01632 1.3711,-0.0205 -0.35654,0.606056 -0.8596,1.417416 -1.51466,2.443359 2.08381,0.02868 2.92393,0.179832 2.52246,0.457032 -0.39188,0.277206 -0.60117,0.612977 -0.62988,1.004882 -0.0166,0.221601 -0.0276,0.310124 -0.041,0.448243 -0.15596,0.05745 -0.31531,0.136605 -0.48926,0.310547 -0.83161,0.841168 -1.60125,3.175527 -2.3086,6.999022 2.37057,-1.080141 3.48106,-1.481307 3.32812,-1.204101 -0.0385,0.06743 -0.021,0.154505 0.0557,0.260742 -0.003,0.0135 -0.0105,0.0245 -0.015,0.03809 -0.17207,0.678674 -0.56815,2.157638 -1.18946,4.432617 1.71102,-0.258088 2.27861,-0.321322 1.70508,-0.1875 -0.57353,0.13383 -0.8584,0.984125 -0.8584,2.551758 0.70734,-0.02867 0.57362,0.09487 -0.40138,0.372071 -0.97498,0.267645 -0.86161,1.345439 0.34279,3.228514 0.0286,0.277202 -0.0194,0.913112 -0.14355,1.907228 -0.12435,0.994108 -0.14686,1.695423 -0.0703,2.106445 -0.61176,0.812496 -0.69242,1.773998 -0.24317,2.882813 0.45879,1.108813 0.64264,1.971457 0.55665,2.592772 0.60219,0.04782 0.4256,0.08345 -0.53028,0.10254 -0.94632,0.0096 -1.20358,1.795914 -0.77344,5.361327 0.57072,0 0.86082,-0.01989 1.21582,-0.03516 -0.21978,0.620805 -0.49354,1.722773 -0.85839,3.691406 0.0883,0.0442 0.15252,0.06475 0.2373,0.105465 -0.17551,0.197623 -0.35214,0.375048 -0.52149,0.641601 -0.73602,1.309534 -0.62773,1.940358 0.32813,1.892578 0.95589,-0.04779 0.0372,0.686219 -2.7539,2.206055 1.44147,0.599553 2.58053,0.991347 3.49805,1.233399 -0.19194,0.215923 -0.37478,0.427666 -0.67091,0.703125 -0.82204,0.755137 -0.60766,2.175954 0.64454,4.259764 0.0956,0.65955 0.14355,1.37613 0.14355,2.15039 0,0.77426 -0.64608,2.20232 -1.93652,4.28613 1.70145,0.50661 2.47617,0.88017 2.32323,1.11914 -0.15294,0.22941 -1.06647,1.35225 -2.73925,3.36914 2.47572,0.0669 3.51787,0.22824 3.12598,0.48633 -0.38239,0.24852 -0.59169,0.52615 -0.62989,0.83203 -0.0383,0.30588 -0.0914,0.5835 -0.15819,0.83203 -0.0669,0.24853 -0.94266,0.81102 -2.625,1.69043 1.36645,1.80666 2.05542,2.71511 2.06542,2.72461 0,-0.01 -0.0429,0.1874 -0.12885,0.58886 -0.0765,0.4015 -0.15201,0.63116 -0.22851,0.68848 -1.74925,0.40147 -3.92443,0.94145 -6.52441,1.62012 -0.27528,0.0719 -0.55068,0.1155 -0.82618,0.17578 -0.0625,-0.0664 -0.0956,-0.12306 -0.16112,-0.19043 -1.47206,0.30586 -2.55201,0.4345 -3.24024,0.38672 -0.37196,-0.0314 -0.58601,-0.005 -0.66797,0.0703 -0.24381,-1.11216 -0.94276,-1.79631 -2.14453,-2.00684 -0.4964,-0.087 -0.63521,-0.0989 -1.01075,-0.16113 0.0307,-0.0323 0.033,-0.0343 0.0645,-0.0674 -1.26175,-0.65956 -1.4914,-1.1036 -0.68847,-1.33301 0.81249,-0.23896 0.67875,-1.24335 -0.40137,-3.01172 -0.61253,-0.37284 -1.10443,-0.5775 -1.53223,-0.6914 -0.0563,-0.30982 -0.0552,-0.51393 -0.14355,-0.88477 -1.56624,-0.76926 -2.68764,-1.10612 -3.38966,-1.03125 0.19841,-0.68536 0.41298,-1.58928 0.6504,-2.8125 -1.10881,-0.29313 -1.74739,-0.33721 -1.99804,-0.17578 0.0834,-0.36919 0.1035,-0.8581 -0.009,-1.58789 -0.0416,-0.26979 -0.1419,-0.48057 -0.28125,-0.65039 0.27687,-0.34591 0.56638,-0.70634 1.37109,-1.72851 -0.31392,-0.51487 -0.55275,-0.83971 -0.8291,-1.25977 0.85511,-1.09091 1.48806,-1.8434 1.70507,-1.96582 0.24141,-0.13881 0.80574,-1.27991 1.52344,-2.88574 2.25812,-1.23881 7.3613,-4.388882 9.60059,-5.947262 -4.15464,0.878789 -12.31547,2.672667 -14.15333,1.763671 -0.67023,-0.862726 -1.18938,-1.163053 -1.55859,-0.902343 0.15837,-0.242889 0.91698,-1.393554 2.44922,-3.714844 -2.12204,-1.19484 -3.29283,-1.482642 -3.51269,-0.861327 -0.10755,0.299244 -0.25965,0.158992 -0.45411,-0.392579 0.0395,-0.216907 0.10935,-0.481213 0.17579,-0.738282 0.9056,-0.67327 1.48282,-1.581438 1.66992,-2.768554 0.2772,-1.758808 -1.08038,-3.068424 -4.07227,-3.92871 0.0608,0.622899 0.1011,0.942789 0.1377,1.224609 -0.1392,-0.186361 -0.47897,-0.36126 -0.958,-0.530274 -0.0973,-0.153743 -0.18399,-0.243318 -0.27538,-0.357422 0.12495,-0.06153 0.30034,-0.164818 0.44238,-0.240234 0.0813,0.09004 0.12569,0.14334 0.208,0.234375 -0.0411,-0.110325 -0.0622,-0.181603 -0.1026,-0.29004 0.24196,-0.130365 0.44364,-0.22998 0.73242,-0.398437 -0.42711,-0.325769 -0.81432,-0.598221 -1.16894,-0.817384 -0.0135,-0.03874 -0.0271,-0.07285 -0.0411,-0.111329 0.4043,-0.238463 0.8997,-0.48608 1.57032,-0.75 -1.43382,-1.252193 -1.33788,-1.814691 0.2871,-1.69043 1.625,0.114705 0.62571,-1.482715 -2.99706,-4.79004 -0.42388,0 -0.70606,0.04537 -1.05175,0.0703 -0.0636,-0.524632 -0.0366,-0.861115 0.1494,-0.858397 0.64999,0 1.15434,-1.337225 1.51758,-4.013674 -2.71473,-0.917621 -4.40515,-1.092062 -5.07426,-0.518537 -0.66459,0.569651 -1.11328,0.975581 -1.35351,1.224609 -0.16467,-0.176079 -0.37171,-0.344523 -0.61816,-0.506835 0.51066,-0.246301 1.23814,-0.561852 2.44335,-1.03125 -0.86985,-1.844833 -1.40474,-3.106482 -1.60547,-3.785157 -0.15508,-0.531724 -0.81177,-0.990801 -1.94824,-1.379883 0.009,-0.0084 0.0135,-0.01485 0.0234,-0.02345 2.16235,-0.501018 3.33829,-1.169634 3.41601,-2.024413 0.0956,-1.051463 0.27727,-2.280408 0.54492,-3.685547 -1.61456,-1.096683 -3.0279,-1.496337 -4.24805,-1.221679 -0.25809,-0.389154 -0.51402,-0.813198 -0.7705,-1.250978 0.18162,-0.301099 0.42145,-0.65322 0.71778,-1.054687 0.60219,-0.81249 0.50625,-2.803061 -0.28712,-5.976563 -1.46719,0.173486 -2.5131,0.384788 -3.17578,0.632813 -0.16644,-0.293955 -0.28931,-0.601028 -0.33692,-0.934571 -0.0574,-0.401466 -0.1278,-0.934198 -0.21387,-1.59375 -0.0765,-0.659554 -0.2458,-1.419009 -0.50389,-2.279296 -0.24852,-0.869841 -0.67223,-1.555883 -1.27442,-2.0625 -0.10515,-0.219848 -0.19596,-0.631196 -0.27246,-1.233398 -0.0765,-0.61176 -0.45513,-1.760046 -1.13379,-3.442383 -0.6978,-0.248527 -1.12657,-0.548673 -1.28907,-0.902344 -0.15294,-0.353676 -0.68058,-1.196729 -1.57909,-2.52539 z m 82.09862,7.499999 c -0.1434,0.974992 0.27306,1.520061 1.24805,1.634766 0.975,0.10515 1.54258,-0.124515 1.70508,-0.688476 0.17206,0.669144 0.60886,1.032523 1.30663,1.089843 0.69781,0.04779 1.27556,0.105945 1.73438,0.172852 0.1194,0.01485 0.22861,-0.03239 0.34278,-0.0498 0.15909,0.701679 0.53328,1.33487 1.11034,1.904297 -0.24291,1.284718 -0.17704,2.139079 0.22266,2.531249 0.50661,0.487499 1.16798,1.161197 1.98047,2.021484 0.78607,-0.19759 1.3974,-0.365359 1.92481,-0.518554 0.72541,0.466065 1.07745,0.697684 1.40039,0.911133 0.0658,1.878221 0.39727,2.821556 1.03125,2.71875 0.30249,-0.04905 0.49156,0.19355 0.60351,0.626954 -0.66306,0.362565 -1.20947,0.826317 -1.62011,1.409179 -0.58309,0.841169 -0.87598,1.835373 -0.87598,2.982422 0,0.836514 0.32917,1.524547 0.96973,2.071288 0.34952,2.467469 1.4334,3.909246 3.2666,4.300782 -0.31637,0.04367 -0.58671,0.07305 -0.98145,0.1377 0.71679,0.712446 1.26355,1.242731 1.71973,1.672851 0.35999,1.947063 0.55541,3.417474 0.41895,3.934571 -0.17206,0.678667 0.078,1.304404 0.74706,1.877929 -1.03233,-0.324997 -1.63047,-0.138225 -1.79296,0.559571 -0.15296,0.69779 -0.26415,1.199978 -0.33105,1.505859 -0.0669,0.296319 -0.16284,0.601551 -0.28712,0.916992 -0.11475,0.315435 -0.23824,0.764569 -0.37207,1.347657 -0.50661,1.099252 -1.3569,1.987342 -2.55176,2.666015 -1.18527,0.669111 -3.20638,1.282506 -6.06445,1.836914 0.1434,1.147049 0.0903,1.6514 -0.15821,1.517578 -0.24852,-0.133784 -0.5007,-0.161431 -0.75879,-0.08496 -1.59631,0 -3.14067,0.219479 -4.63183,0.65918 -1.49115,0.43014 -2.95995,0.392352 -4.40331,-0.114255 -1.51985,0.181615 -2.92755,0.239762 -4.22754,0.172852 -0.51644,-0.0306 -0.995,0.07561 -1.4502,0.257813 0.0829,-0.151041 0.1005,-0.311935 0.0439,-0.486329 -0.21027,-0.678673 -0.30621,-0.981743 -0.28712,-0.905273 -0.86985,-0.286761 -0.35748,-0.372518 1.53516,-0.257813 1.90218,0.114705 1.35711,-1.323546 -1.63476,-4.31543 -0.0642,0.06302 -0.0522,0.07026 -0.1026,0.123046 -0.0834,-0.04554 -0.29296,-0.09215 -0.44532,-0.1377 0.93063,0.100005 1.95761,-0.875574 3.08496,-2.953125 -0.44325,-0.439871 -0.85005,-0.773892 -1.25976,-1.119141 0.32456,-0.232821 0.56456,-0.389313 1.05762,-0.773438 0.83117,-0.640432 0.82652,-2.618661 -0.015,-5.935547 -0.49885,0.11394 -0.86403,0.248368 -1.2627,0.37793 0.20802,-0.666267 0.22425,-1.571257 0.0175,-2.745117 0.44928,-0.984553 0.53502,-1.905339 0.25782,-2.765625 -0.10005,-0.325318 -0.15471,-0.580504 -0.208,-0.834961 0.0765,-0.04785 0.10125,-0.06285 0.17871,-0.111331 -0.0876,0.01706 -0.1101,0.0213 -0.19629,0.03809 -0.078,-0.393804 -0.1158,-0.727866 -0.0762,-0.94336 0.22747,-0.714521 0.3363,-1.23402 0.38671,-1.661132 0.0677,-0.0082 0.10095,-0.0051 0.17285,-0.0147 -0.0737,-0.222915 -0.0986,-0.454068 -0.15527,-0.679688 -0.2452,-0.974044 -0.37452,-1.966755 -0.30469,-2.991211 0.0413,-0.548444 -0.12495,-0.972191 -0.43067,-1.3125 0.12945,0.08894 0.1323,0.104445 0.28712,0.208008 0.55144,-0.807278 0.7702,-1.409452 0.72655,-1.851563 0.19215,0.154098 0.23213,0.211502 0.50684,0.418946 0.58309,-3.613203 0.30546,-5.364704 -0.83202,-5.25 -0.18042,0.01835 -0.33452,0.06852 -0.49512,0.11133 0.36181,-0.294153 0.56835,-0.675944 0.56835,-1.171875 0,-0.822053 -0.22965,-1.470305 -0.68847,-1.948242 0.26764,0.334558 0.60049,0.293841 1.00195,-0.117195 0.27699,-0.276984 0.32571,-0.586614 0.18164,-0.928712 0.24477,0.216987 0.52657,0.158436 0.85254,-0.231445 0.4875,-0.583086 0.80292,-0.32582 0.94629,0.773437 1.11837,-0.22941 2.17797,-0.16617 3.18165,0.1875 1.00366,0.344115 1.73041,-0.248922 2.17968,-1.77832 z m -9.82909,10.863282 c 0.20061,0.03383 0.42369,0.07288 0.55077,0.08788 0.0559,0.04735 0.21772,0.156157 0.30177,0.219726 -0.24366,-0.125295 -0.53325,-0.22361 -0.87012,-0.292968 z m -81.15528,15.899413 c 0.0255,0.142335 0.1086,0.275093 0.31347,0.380861 0.59265,0.30588 0.1762,0.734655 -1.24805,1.289062 0.83828,1.108452 1.46228,1.77079 1.88379,2.015625 -0.1308,0.0029 -0.17525,-0.0044 -0.36327,0.0059 0,2.045571 0.32558,3.178584 0.97559,3.398438 0.64998,0.219847 1.20231,-0.07305 1.66113,-0.875978 -0.26106,0.472128 -0.39159,0.87543 -0.42188,1.221681 -0.47076,0.182452 -1.15809,0.498833 -2.10058,0.972656 0,1.720573 0.32557,2.52075 0.97558,2.396484 0.65955,-0.12426 -0.002,0.33721 -1.98046,1.388673 0.87781,1.033193 1.69291,1.771257 2.44921,2.244139 -0.0464,0.03655 -0.0346,0.027 -0.0821,0.06445 1.96907,0.812496 2.96837,1.276896 2.99708,1.391601 0.0382,0.114705 0.10365,0.414852 0.19921,0.902344 0.0956,0.487499 0.21697,1.100894 0.36035,1.836914 0.15294,0.736009 0.52866,1.116819 1.13086,1.145508 -0.46837,-0.191173 -0.88482,0.1446 -1.24804,1.004883 -0.23397,0.554122 0.16702,1.89247 1.0752,3.858399 -1.92324,-0.228639 -3.90618,-0.228041 -5.9502,0.02637 -2.21762,0.277202 -4.29395,0.277202 -6.23438,0 -1.63614,-0.21341 -2.97688,-0.01942 -4.02538,0.577147 0.0738,-0.148034 0.15256,-0.295274 0.18163,-0.462889 0.17205,-0.936758 0.34356,-1.804488 0.51563,-2.607423 0.18162,-0.802933 0.4011,-1.560231 0.65917,-2.267577 0.26766,-0.716908 0.57288,-1.546851 0.917,-2.493165 0.71691,-1.166166 1.19149,-2.427815 1.42091,-3.785155 0.23896,-1.366904 1.00861,-2.969409 2.30858,-4.804688 -0.36553,-0.04742 -0.45891,-0.02982 -0.7207,-0.05274 0.26611,-0.299148 0.50818,-0.803499 0.7207,-1.538086 -0.0382,-0.449264 0.27717,-1.095354 0.9463,-1.936524 0.6691,-0.850725 0.56299,-1.65306 -0.31642,-2.408202 0.65,0.191175 1.15219,-0.119145 1.50587,-0.931641 0.288,-0.669417 0.52245,-1.308069 0.74706,-1.939454 0.27621,0.08299 0.5265,0.08394 0.74707,-0.01758 z"
     style="baseline-shift:baseline;display:inline;overflow:visible;vector-effect:none;fill:#d4e0e3;stroke:none;stroke-width:1;stroke-linecap:butt;enable-background:accumulate;stop-color:#000000;stop-opacity:1"
     id="path20"
     sodipodi:nodetypes="cccscsccccccccccccccccscccscsccccccccccccccccccccsccccccccccccccccccccccccccccccccccccccccccccsscccccccccccscccccsccsccsccscscccscscccccscccscccscccscccccscscccscscccscccccccccccccccccccccsccsccccccccccccccccscccccccscscccccscccccccccccccccccccscscccccccccccccccccccccscccccccccccccsccccsccccssccccsccccscccccccccsccccccccccccsccccccccccccccccsccccccsccccccccccccccccccccccccccsccsccccccccccccsccccccccccccccccccccccccccccccccscccscccccccccsccccsccccccccsccsccccccccccccccccss" /><circle
     style="fill:#d4e0e3;fill-opacity:1;stroke:#e03513;stroke-width:5;stroke-miterlimit:2;stroke-dasharray:none;stroke-opacity:1;paint-order:fill markers stroke"
     id="path24"
     cx="85.080963"
     cy="84"
     r="68" /><path
     id="path19"
     style="fill:#134f5c;fill-opacity:1;stroke:none;stroke-width:1;stroke-miterlimit:2;stroke-dasharray:none;paint-order:fill markers stroke"
     d="m 85.080078,33.117188 c -0.99081,0 -1.981024,0.15905 -2.740234,0.478515 L 27.207031,56.794922 c -1.518419,0.638931 -1.51842,1.66771 0,2.30664 l 7.796875,3.28125 -3.679687,23.140626 a 1.231508,1.231508 0 0 0 1.216797,1.425781 h 9.738281 a 1.231508,1.231508 0 0 0 1.214844,-1.425781 l -3.333985,-20.972657 9.490235,3.994141 v 7.189453 a 35.430902,19.125569 0 0 0 0.873047,3.978516 c -3.081893,5.614238 -4.837891,12.055035 -4.837891,18.902343 0,21.731656 17.662881,39.394536 39.394531,39.394536 21.731652,0 39.396482,-17.66288 39.396482,-39.394536 0,-6.808933 -1.73535,-13.216591 -4.78515,-18.808593 a 35.430902,19.125569 0 0 0 0.82031,-4.072266 v -7.189453 l 22.4414,-9.44336 c 1.51842,-0.63893 1.51842,-1.66771 0,-2.30664 L 87.822266,33.595703 C 87.063057,33.276238 86.070888,33.117188 85.080078,33.117188 Z M 53.115234,84.441406 c 0.266627,0.120158 0.542409,0.222498 0.810547,0.339844 a 35.430902,19.125569 0 0 0 14.210938,7.710938 c -0.218338,2.012692 -0.347657,4.051457 -0.347657,6.123046 0,3.089926 0.268369,6.114746 0.728516,9.074216 -5.367133,1.16222 -10.512098,2.89528 -15.402344,5.09961 -1.923845,-4.33571 -3.021484,-9.11837 -3.021484,-14.173826 0,-5.055453 1.09764,-9.83812 3.021484,-14.173828 z m 63.933596,0.002 c 1.92294,4.334832 3.01953,9.117776 3.01953,14.171875 0,5.054539 -1.09636,9.838749 -3.01953,14.173829 -4.89086,-2.20336 -10.03718,-3.93748 -15.4043,-5.09961 0.46015,-2.95946 0.72852,-5.98429 0.72852,-9.074219 0,-2.059538 -0.12781,-4.086569 -0.34375,-6.08789 A 35.430902,19.125569 0 0 0 116.31641,84.752 c 0.24226,-0.106255 0.49139,-0.200043 0.73242,-0.308594 z m -44.591799,9.107422 a 35.430902,19.125569 0 0 0 12.623047,1.310547 35.430902,19.125569 0 0 0 12.628906,-1.263672 c 0.159792,1.652572 0.257813,3.323036 0.257813,5.017578 0,2.814419 -0.242066,5.569119 -0.654297,8.269539 -3.987508,-0.62988 -8.066063,-0.9961 -12.232422,-0.9961 -4.166359,0 -8.242947,0.36622 -12.230469,0.9961 -0.412239,-2.70042 -0.654297,-5.45512 -0.654297,-8.269539 0,-1.710553 0.09905,-3.396658 0.261719,-5.064453 z m 12.623047,16.746102 c 3.870482,0 7.660455,0.33611 11.371094,0.9121 -1.982735,8.37963 -5.875473,16.00668 -11.228516,22.39063 -0.04417,0.001 -0.103019,0.004 -0.142578,0.004 -0.03956,0 -0.09645,-0.003 -0.140625,-0.004 -5.353042,-6.38395 -9.245782,-14.011 -11.228515,-22.39063 3.710651,-0.57599 7.498658,-0.9121 11.36914,-0.9121 z m -15.708984,1.71289 c 1.800285,7.71295 5.161231,14.79349 9.664062,21.00585 -10.132128,-1.76715 -18.744567,-7.84606 -23.873047,-16.32226 4.519976,-2.01518 9.26488,-3.6093 14.208985,-4.68359 z m 31.419926,0 c 4.9444,1.07417 9.6903,2.66579 14.21093,4.67968 -5.12806,8.47793 -13.73976,14.55854 -23.873044,16.32617 4.502518,-6.21242 7.861896,-13.29306 9.662114,-21.00585 z" /><path
     style="font-weight:bold;font-size:79.2063px;line-height:1.1;font-family:Kalam;-inkscape-font-specification:Kalam;letter-spacing:0px;fill:#d4e0e3;stroke:none;stroke-width:2.50001;stroke-miterlimit:2;stroke-opacity:0;paint-order:fill markers stroke"
     d="m 382.48183,132.3879 q -2.95698,0 -7.07101,-4.88541 -4.11402,-5.01397 -4.11402,-8.09949 0,-3.08554 3.08552,-12.7278 9.5137,-29.569589 10.15652,-51.811065 -4.37117,-4.62829 -4.37117,-7.328122 0,-4.242597 10.02795,-7.970937 10.15652,-3.856904 19.28453,-3.856904 15.42763,0 24.29849,7.199554 8.99945,7.199556 8.99945,18.38458 0,14.270547 -14.01342,25.841249 -13.88486,11.570719 -35.09783,15.813315 -6.04248,21.72722 -7.97094,25.58412 -1.79988,3.85691 -3.21407,3.85691 z m 42.04025,-70.709902 q 0,-4.11404 -2.95696,-6.685299 -2.95695,-2.699838 -7.97094,-2.699838 -5.01396,0 -13.88485,4.756852 2.57127,4.499721 2.57127,8.099504 0,7.070981 -3.72835,20.955836 11.57071,-4.628274 18.77027,-11.056456 7.19956,-6.556735 7.19956,-13.370599 z M 460.39127,30.82276 q 3.08551,0 7.97094,5.656793 4.8854,5.656792 4.8854,10.799331 0,5.14254 -1.54277,18.384579 -1.54275,13.113481 -3.21409,20.955847 -10.67076,46.53997 -14.91336,46.53997 -2.8284,0 -7.07098,-4.49972 -4.11403,-4.62828 -4.11403,-7.58523 0,-0.25714 3.47121,-13.37061 3.47122,-13.113474 6.94244,-33.683636 3.59976,-20.698716 3.59976,-39.468985 0,-3.728339 3.98548,-3.728339 z m 70.71,65.8245 q 2.31415,2.057014 2.31415,3.72834 0,1.67133 -1.54277,6.94242 -1.54276,5.27111 -2.05701,8.22807 -0.51426,2.8284 -0.89995,4.49972 -0.25713,1.67133 -0.38568,2.69984 -0.12855,0.89994 -0.51426,2.31413 -0.25712,1.4142 -0.51424,2.31415 -0.12855,0.77138 -0.51427,1.92845 -0.25712,1.02851 -0.64281,1.67133 -0.38569,0.51425 -0.89996,1.15707 -0.77136,1.0285 -2.57126,1.0285 -1.79988,0 -4.49972,-3.59978 -2.57127,-3.59976 -3.8569,-8.74231 -12.08497,12.34209 -20.31304,12.34209 -5.52823,0 -11.9564,-6.04249 -6.42817,-6.17104 -6.42817,-12.21351 0,-6.17106 5.52822,-17.484636 5.52822,-11.313591 15.04193,-20.955853 9.64225,-9.642252 19.02739,-9.642252 5.39968,0 12.47066,6.299608 7.071,6.299618 7.071,11.570702 0,5.142552 -3.85691,11.956411 z m -37.41196,20.31304 q 5.14253,0 13.62773,-6.94243 8.61375,-7.071 10.67076,-17.741763 0.12855,-1.542769 2.18558,-1.799897 -0.38568,-7.328109 -2.44271,-7.328109 -5.14255,0 -11.57071,6.6853 -6.29962,6.685284 -10.41364,14.270539 -3.98547,7.58525 -3.98547,11.18501 0,1.02851 0.25714,1.4142 0.38569,0.25715 1.67132,0.25715 z m 96.29408,-46.92568 q 0.77137,-3.214081 4.24259,-3.214081 3.47122,0 7.07098,4.371147 3.72834,4.371167 3.72834,9.899401 0,3.214091 -2.31413,10.156519 -2.31414,6.942423 -3.34265,9.899364 -0.89996,2.95697 -2.69984,8.0995 -1.79988,5.01398 -3.34266,9.38514 -1.41419,4.2426 -3.98545,11.44216 -2.44271,7.19954 -4.49972,13.37059 -3.98548,11.57071 -9.77083,17.87033 -5.6568,6.29961 -14.78481,6.29961 -9.128,0 -16.32755,-4.88542 -7.19956,-4.75684 -7.19956,-9.64225 0,-2.95697 2.57128,-6.55676 2.69983,-3.59976 4.49972,-3.59976 1.92844,0 4.88542,2.95695 3.08551,3.08552 6.29959,6.04249 3.21409,3.08552 5.6568,3.08552 1.67132,0 2.69982,-1.54276 1.15708,-1.54276 1.79989,-2.82839 0.77138,-1.15707 1.54278,-3.34266 0.77136,-2.05702 1.41419,-3.8569 0.64282,-1.79988 1.54275,-4.75685 0.89996,-2.95696 1.54278,-5.2711 2.18557,-6.94244 3.72834,-12.34209 -4.24261,5.52823 -8.74233,8.87087 -4.49972,3.21409 -8.35662,3.21409 -3.72834,0 -9.38513,-5.65679 -5.52824,-5.78535 -5.52824,-12.59922 0,-6.94243 2.95698,-18.513138 3.08551,-11.570719 7.58523,-20.570161 4.49973,-8.999442 7.97094,-8.999442 3.98546,0 7.45668,3.471219 3.59978,3.342644 3.59978,6.556735 0,3.085516 -3.21409,10.027944 -3.08553,6.942423 -6.29962,15.170503 -3.21407,8.22806 -3.21407,14.01341 0,0.77138 0.64281,0.77138 1.67132,0 7.07098,-6.17104 5.39968,-6.29961 12.08498,-17.741763 6.81387,-11.570713 10.41365,-22.884297 z m 69.68145,24.555626 q 1.92844,2.185578 1.92844,5.271094 0,3.08553 -2.57126,7.58525 -3.21409,7.71381 -5.6568,19.15596 -2.44271,11.44215 -4.88541,18.256 -2.31414,6.94244 -5.14253,11.82784 -2.69984,4.88542 -7.4567,8.09952 Q 631.12374,168 624.9527,168 q -8.61377,0 -15.42763,-5.6568 -6.81386,-5.65681 -6.81386,-9.77083 0,-3.98546 2.18557,-7.32812 2.18559,-3.21409 3.98547,-3.21409 1.92845,0 3.59979,2.05702 1.79987,2.05702 3.21408,4.37116 1.54277,2.44271 3.98547,4.49971 2.44271,2.05703 5.39966,2.05703 2.95697,0 5.39967,-3.85691 2.44271,-3.85691 3.72834,-8.35662 3.21409,-10.5422 3.98547,-15.04192 -8.74231,5.39965 -14.27054,5.39965 -5.39967,0 -10.54221,-5.91392 -5.14254,-6.04249 -5.14254,-11.31358 0,-5.39968 2.8284,-13.37061 2.95696,-8.099499 7.45668,-16.070424 4.62828,-8.099494 11.57071,-13.884866 7.071,-5.785341 14.14198,-5.785341 4.75684,0 8.09951,2.442696 3.34264,2.314143 4.88541,6.299618 2.69982,6.942428 2.69982,15.684742 0,1.28563 -0.25711,3.342651 z m -35.6121,20.698704 q 0,1.67134 1.41419,1.67134 3.72834,0 12.08497,-6.81388 8.35663,-6.81385 11.18502,-13.499161 v -2.442707 q 0,-8.356617 -1.54274,-10.156514 -0.77139,-0.899938 -2.05702,-0.899938 -6.17106,0 -13.62774,12.984914 -7.45668,12.984906 -7.45668,19.155946 z m 53.73967,-26.741201 -0.77138,-14.527665 q 0,-7.199545 4.49972,-7.199545 2.57128,0 5.01398,1.92844 2.57126,1.928461 3.85691,6.04249 4.37116,-3.856912 9.51369,-6.171043 5.2711,-2.442707 9.25658,-2.442707 9.38512,0 9.38512,4.499721 0,2.314132 -0.89995,3.471219 -0.77137,1.028502 -1.28562,1.542748 -0.38569,0.514267 -1.54276,1.414204 -1.02852,0.771374 -1.54276,1.157077 -2.95698,1.92844 -4.2426,2.699824 -5.78535,3.599783 -9.8994,8.742314 -4.11403,5.013984 -6.17104,14.013424 -3.47122,14.78479 -6.81385,22.11291 -3.21409,7.19956 -7.32812,7.19956 -3.98548,0 -6.04249,-3.85691 -1.92845,-3.85689 -1.92845,-7.19956 0,-3.47121 2.4427,-10.28507 2.57126,-6.81387 3.47122,-11.69929 1.0285,-5.013952 1.0285,-11.442141 z m 57.59638,31.498061 q 6.94242,-3.08551 12.08495,-12.47065 5.14254,-9.385131 5.14254,-17.613206 0,-8.228058 -2.31414,-11.313574 -5.52822,3.214091 -11.05645,13.499163 -5.39967,10.285067 -5.39967,18.127447 0,7.71381 1.54277,9.77082 z m -18.77027,-8.48519 q 0,-16.070437 9.89938,-30.469533 10.02795,-14.399122 19.79877,-14.399122 9.77082,0 16.45613,6.942427 6.68531,6.813874 6.68531,16.584701 0,9.642247 -4.62829,19.670197 -4.62829,10.02795 -12.98492,16.71326 -8.35663,6.55673 -17.87031,6.55673 -7.071,0 -12.21353,-6.29961 -5.14254,-6.29961 -5.14254,-15.29905 z m 104.39346,-41.526 q 1.02852,-3.214081 4.11403,-3.214081 3.08553,0 7.071,5.271106 4.11403,5.271105 4.11403,9.127984 0,1.414205 -5.91391,18.898841 -5.91393,17.48464 -9.12802,27.64116 -1.79989,5.39965 -6.04249,5.39965 -2.57126,0 -4.37114,-1.79988 -1.67133,-1.92845 -1.67133,-5.91393 0,-3.98545 1.54275,-11.31357 -13.24203,19.02738 -21.0844,19.02738 -4.11403,0 -9.89938,-5.2711 -5.78537,-5.39966 -5.78537,-10.41364 0,-12.34208 6.94243,-31.49804 7.071,-19.155961 13.24204,-19.155961 3.72834,0 6.55673,3.342645 2.95697,3.342655 2.95697,7.32812 0,1.542768 -3.21409,8.613749 -9.77083,21.212967 -9.77083,29.955287 0,0.77138 0.64281,0.77138 1.92847,0 7.19958,-6.04249 5.39965,-6.17104 11.95639,-17.48461 6.6853,-11.442149 10.5422,-23.27 z m 64.66744,-3.214081 q 6.68529,0 11.69927,6.04249 5.14254,5.913915 5.14254,12.727779 0,10.927877 -3.59976,22.884292 -3.47122,11.82784 -7.71382,18.256 -4.11402,6.42818 -8.4852,6.42818 -4.2426,0 -4.2426,-6.04249 0,-4.62827 4.2426,-18.6417 3.21409,-11.570713 3.21409,-16.584675 0,-5.013988 -1.28563,-5.013988 -1.67133,0 -3.34266,1.671322 -1.54274,1.671344 -2.57126,2.956974 -1.0285,1.28563 -2.4427,3.34264 -1.28564,1.928461 -2.31416,3.599783 -0.89993,1.542744 -2.4427,4.114024 -1.41421,2.44271 -2.31415,4.11403 -0.89993,1.54277 -2.31413,4.11403 -11.95641,22.37005 -18.77027,22.37005 -2.69982,0 -6.81387,-4.62829 -4.11403,-4.75684 -4.11403,-6.94242 0,-1.4142 1.79989,-6.04248 1.92846,-4.75686 2.69983,-7.19956 0.89995,-2.57126 1.4142,-5.39966 0.64282,-2.8284 1.02851,-6.042493 0.38569,-3.342644 0.51425,-5.142537 0.25713,-1.799886 0.51425,-5.656797 1.15708,-16.713233 1.92846,-18.51313 0.89994,-1.799886 1.92845,-1.799886 4.88541,0 9.38514,4.114029 4.49972,3.985475 4.49972,7.328119 0,7.97093 -4.11403,22.884295 8.35662,-14.656237 15.17048,-23.912807 6.94243,-9.385134 11.69929,-9.385124 z m 78.8095,-35.997779 q 3.08551,0 8.0995,5.656793 5.01396,5.528229 5.01396,10.413641 0,2.442707 -4.49971,20.313038 -4.49972,17.870309 -5.39966,21.598656 -10.28509,44.354392 -15.04193,44.354392 -2.69984,0 -6.04249,-3.21409 -3.34265,-3.21409 -3.34265,-6.29961 0,-0.64281 0.12856,-1.02851 -12.85636,10.54221 -18.51316,10.54221 -5.52822,0 -10.79932,-5.91392 -5.14254,-6.04249 -5.14254,-10.9279 0,-4.8854 1.28563,-10.79932 1.4142,-6.04249 4.2426,-12.727787 2.8284,-6.68531 6.42816,-12.470661 3.72836,-5.913915 8.87089,-9.642252 5.2711,-3.856911 10.79934,-3.856911 8.22805,0 13.49916,8.356632 6.94243,-30.469546 6.6853,-40.497498 0,-3.856903 3.72834,-3.856903 z m -37.92624,86.00896 q 3.2141,0 10.79934,-5.52822 7.71381,-5.52823 11.44215,-14.013431 -0.12856,-1.028512 -0.12856,-4.499716 0,-3.471209 -2.31414,-6.556736 -2.31413,-3.085516 -4.24259,-3.085516 -3.8569,0 -7.45668,4.114018 -3.4712,4.114029 -5.52822,9.770822 -4.37117,11.956419 -4.37117,18.127459 0,1.0285 0.25714,1.4142 0.38567,0.25712 1.54275,0.25712 z"
     id="text27"
     aria-label="Playground" /></svg>
