<?xml version="1.0" encoding="UTF-8" standalone="no"?>
<svg
   version="1.1"
   viewBox="0 0 50.308372 50.308364"
   fill="none"
   stroke="none"
   stroke-linecap="square"
   stroke-miterlimit="10"
   id="svg4"
   width="50.308372"
   height="50.308365"
   xml:space="preserve"
   sodipodi:docname="maximize.svg"
   inkscape:version="1.4 (86a8ad7, 2024-10-11)"
   inkscape:export-filename="maximize.svg"
   inkscape:export-xdpi="96"
   inkscape:export-ydpi="96"
   xmlns:inkscape="http://www.inkscape.org/namespaces/inkscape"
   xmlns:sodipodi="http://sodipodi.sourceforge.net/DTD/sodipodi-0.dtd"
   xmlns="http://www.w3.org/2000/svg"
   xmlns:svg="http://www.w3.org/2000/svg"><sodipodi:namedview
     id="namedview1"
     pagecolor="#ffffff"
     bordercolor="#000000"
     borderopacity="0.25"
     inkscape:showpageshadow="2"
     inkscape:pageopacity="0.0"
     inkscape:pagecheckerboard="0"
     inkscape:deskcolor="#d1d1d1"
     inkscape:zoom="8.2491252"
     inkscape:cx="24.548058"
     inkscape:cy="30.306244"
     inkscape:window-width="1147"
     inkscape:window-height="1002"
     inkscape:window-x="-5"
     inkscape:window-y="0"
     inkscape:window-maximized="0"
     inkscape:current-layer="svg4" /><defs
     id="defs4" /><path
     id="rect5"
     style="fill:#000000;stroke:none;stroke-width:0.999997;stroke-miterlimit:2;stroke-dasharray:none;paint-order:fill markers stroke"
     d="m 3.527219,-1.2909884e-4 c -0.112895,0 -0.2238614,0.005394999 -0.3339844,0.0156249988 -0.0019,1.85e-4 -0.00386,-1.87e-4 -0.00586,0 -0.111574,0.01059 -0.2218361,0.02816812 -0.3300781,0.04882812 -0.004,7.8201e-4 -0.0077,0.0031063 -0.011719,0.0039063 C 1.2435365,0.37966632 0.03866972,1.765857 0.00378072,3.452996 0.00323272,3.477756 -1.25527e-4,3.502445 -1.25527e-4,3.527215 v 12.910156 c 0,1.954386 1.572957627,3.527344 3.527343727,3.527344 1.954385,0 3.5273437,-1.572958 3.5273437,-3.527344 V 12.04284 L 20.165891,25.154168 7.0565158,38.263543 v -4.392578 c 0,-1.954386 -1.5749108,-3.527344 -3.5292968,-3.527344 -1.9543861,0 -3.52734372694,1.572958 -3.52734372694,3.527344 v 12.90625 0.0039 c 0,0.112895 0.005394997,0.223861 0.0156249969,0.333984 1.85e-4,0.0019 -1.87e-4,0.0039 0,0.0059 0.01059,0.111574 0.02816812,0.221836 0.04882812,0.330078 7.82e-4,0.004 0.0031063,0.0077 0.0039063,0.01172 0.31143601,1.602041 1.69762651,2.806908 3.38476551,2.841797 0.02476,5.48e-4 0.049449,0.0039 0.074219,0.0039 H 16.437375 c 1.954386,0 3.527344,-1.572958 3.527344,-3.527344 0,-1.954385 -1.572958,-3.527344 -3.527344,-3.527344 H 12.042844 L 25.154172,30.142449 38.263547,43.251824 h -4.392578 c -1.954386,0 -3.527344,1.574911 -3.527344,3.529297 0,1.954386 1.572958,3.527344 3.527344,3.527344 h 12.90625 0.0039 c 0.112895,0 0.223861,-0.0054 0.333984,-0.01563 0.0019,-1.85e-4 0.0039,1.87e-4 0.0059,0 0.111574,-0.01059 0.221836,-0.02817 0.330078,-0.04883 0.004,-7.82e-4 0.0077,-0.0031 0.01172,-0.0039 1.602041,-0.311436 2.806908,-1.697626 2.841797,-3.384765 5.48e-4,-0.02476 0.0039,-0.04945 0.0039,-0.07422 V 33.870965 c 0,-1.954386 -1.572958,-3.527344 -3.527344,-3.527344 -1.954385,0 -3.527344,1.572958 -3.527344,3.527344 v 4.394531 L 30.142453,25.154168 43.251828,12.044793 v 4.392578 c 0,1.954386 1.574911,3.527344 3.529297,3.527344 1.954386,0 3.527344,-1.572958 3.527344,-3.527344 V 3.5311209 3.5272147 c 0,-0.112895 -0.0054,-0.2238614 -0.01563,-0.3339844 -1.85e-4,-0.0019 1.87e-4,-0.00386 0,-0.00586 -0.01059,-0.111574 -0.02817,-0.2218361 -0.04883,-0.3300781 -7.82e-4,-0.004 -0.0031,-0.0077 -0.0039,-0.011719 -0.311436,-1.6020402 -1.697626,-2.80690705 -3.384765,-2.84179605 -0.02476,-5.48e-4 -0.04945,-0.003906249 -0.07422,-0.003906249 H 33.870969 c -1.954386,0 -3.527344,1.572957799 -3.527344,3.527343799 0,1.954385 1.572958,3.5273437 3.527344,3.5273437 H 38.2655 L 25.154172,20.165887 12.044797,7.0565115 h 4.392578 c 1.954386,0 3.527344,-1.5749109 3.527344,-3.5292968 0,-1.9543861 -1.572958,-3.52734379884 -3.527344,-3.52734379884 H 3.5311252 Z" /></svg>
