<?xml version="1.0" encoding="UTF-8" standalone="no"?>
<svg
   version="1.1"
   viewBox="0 0 50.308372 50.308364"
   fill="none"
   stroke="none"
   stroke-linecap="square"
   stroke-miterlimit="10"
   id="svg4"
   width="50.308372"
   height="50.308365"
   xml:space="preserve"
   xmlns="http://www.w3.org/2000/svg"
   xmlns:svg="http://www.w3.org/2000/svg"><defs
     id="defs4" /><path
     id="rect5"
     style="fill:#000000;stroke:none;stroke-width:0.999997;stroke-miterlimit:2;stroke-dasharray:none;paint-order:fill markers stroke"
     d="m 30.871107,1.2120317e-5 c -1.954386,0 -3.527344,1.572957979683 -3.527344,3.527343979683 0,1.954385 1.572958,3.527343 3.527344,3.527343 h 12.380859 l 0.002,12.3828139 c 3.09e-4,1.954386 1.57491,3.527344 3.529297,3.527344 1.954385,0 3.527584,-1.572958 3.527344,-3.527344 l -0.002,-15.9062509 v -0.0039 c 0,-0.112895 -0.0054,-0.223861 -0.01563,-0.333984 -1.85e-4,-0.0019 1.87e-4,-0.0039 0,-0.0059 -0.01059,-0.111574 -0.02817,-0.221837 -0.04883,-0.330079 -7.82e-4,-0.004 -0.0031,-0.0077 -0.0039,-0.01172 -0.311436,-1.602036 -1.697626,-2.80690298 -3.384765,-2.84179198 -0.02476,-5.48e-4 -0.04945,-0.0038999997 -0.07422,-0.0038999997 z" /><path
     id="rect5-5"
     style="fill:#000000;stroke:none;stroke-width:0.999997;stroke-miterlimit:2;stroke-dasharray:none;paint-order:fill markers stroke"
     d="m 50.308347,30.868865 c 0,-1.954386 -1.572958,-3.527344 -3.527344,-3.527344 -1.954385,0 -3.527343,1.572958 -3.527343,3.527344 v 12.380859 l -12.382813,0.002 c -1.954386,3.09e-4 -3.527344,1.57491 -3.527344,3.529297 0,1.954385 1.572958,3.527584 3.527344,3.527344 l 15.90625,-0.002 h 0.0039 c 0.112895,0 0.223861,-0.0054 0.333984,-0.01563 0.0019,-1.85e-4 0.0039,1.87e-4 0.0059,0 0.111574,-0.01059 0.221837,-0.02817 0.330079,-0.04883 0.004,-7.82e-4 0.0077,-0.0031 0.01172,-0.0039 1.602036,-0.311436 2.806903,-1.697626 2.841792,-3.384765 5.48e-4,-0.02476 0.0039,-0.04945 0.0039,-0.07422 z" /><path
     id="rect5-7"
     style="fill:#000000;stroke:none;stroke-width:0.999997;stroke-miterlimit:2;stroke-dasharray:none;paint-order:fill markers stroke"
     d="m 19.439499,50.308341 c 1.954386,0 3.527344,-1.572958 3.527344,-3.527344 0,-1.954385 -1.572958,-3.527343 -3.527344,-3.527343 H 7.0586401 l -0.002,-12.382813 c -3.09e-4,-1.954386 -1.574909,-3.527344 -3.529297,-3.527344 -1.954384,0 -3.52758302034,1.572958 -3.527343020341835,3.527344 L 0.00200008,46.777091 v 0.0039 c 0,0.112895 0.0054,0.223861 0.01563,0.333984 1.85e-4,0.0019 -1.87e-4,0.0039 0,0.0059 0.01059,0.111574 0.02817,0.221837 0.04883,0.330079 7.82e-4,0.004 0.0031,0.0077 0.0039,0.01172 0.311436,1.602036 1.69762602,2.806903 3.38476402,2.841792 0.02476,5.48e-4 0.04945,0.0039 0.07422,0.0039 z" /><path
     id="rect5-5-1"
     style="fill:#000000;stroke:none;stroke-width:0.999997;stroke-miterlimit:2;stroke-dasharray:none;paint-order:fill markers stroke"
     d="m 0.00224744,19.439475 c 0,1.954386 1.57295796,3.527344 3.52734396,3.527344 1.954385,0 3.527343,-1.572958 3.527343,-3.527344 V 7.0586155 l 12.3828126,-0.002 c 1.954386,-3.09e-4 3.527344,-1.57491 3.527344,-3.529297 0,-1.954385 -1.572958,-3.52758403536 -3.527344,-3.527344035967 L 3.5334974,0.00197446 h -0.0039 c -0.112895,0 -0.223861,0.0054 -0.333984,0.01563 -0.0019,1.85e-4 -0.0039,-1.87e-4 -0.0059,0 -0.111574,0.01059 -0.221837,0.02817 -0.330079,0.04883 -0.004,7.82e-4 -0.0077,0.0031 -0.01172,0.0039 -1.602036,0.311436 -2.80690296,1.69762604 -2.84179196,3.38476504 -5.48e-4,0.02476 -0.0039,0.04945 -0.0039,0.07422 z" /></svg>
