<?xml version="1.0" encoding="UTF-8" standalone="no"?>
<svg
   version="1.1"
   viewBox="0 0 50.308372 50.308364"
   fill="none"
   stroke="none"
   stroke-linecap="square"
   stroke-miterlimit="10"
   id="svg4"
   width="50.308372"
   height="50.308365"
   xml:space="preserve"
   xmlns="http://www.w3.org/2000/svg"
   xmlns:svg="http://www.w3.org/2000/svg"><defs
     id="defs4" /><path
     id="rect5"
     style="fill:#000000;stroke:none;stroke-width:0.999997;stroke-miterlimit:2;stroke-dasharray:none;paint-order:fill markers stroke"
     d="m 46.783263,22.964832 c 1.954386,0 3.527344,-1.572958 3.527344,-3.527344 0,-1.954385 -1.572958,-3.527343 -3.527344,-3.527343 H 34.402404 l -0.002,-12.3828135 c -3.09e-4,-1.954386 -1.57491,-3.527343991272 -3.529297,-3.527343991272 -1.954385,0 -3.527584,1.572957991272 -3.527344,3.527343991272 l 0.002,15.9062505 v 0.0039 c 0,0.112895 0.0054,0.223861 0.01563,0.333984 1.85e-4,0.0019 -1.87e-4,0.0039 0,0.0059 0.01059,0.111574 0.02817,0.221837 0.04883,0.330079 7.82e-4,0.004 0.0031,0.0077 0.0039,0.01172 0.311436,1.602036 1.697626,2.806903 3.384765,2.841792 0.02476,5.48e-4 0.04945,0.0039 0.07422,0.0039 z" /><path
     id="rect5-5"
     style="fill:#000000;stroke:none;stroke-width:0.999997;stroke-miterlimit:2;stroke-dasharray:none;paint-order:fill markers stroke"
     d="m 27.343528,46.781022 c 0,1.954386 1.572958,3.527344 3.527344,3.527344 1.954385,0 3.527343,-1.572958 3.527343,-3.527344 V 34.400163 l 12.382813,-0.002 c 1.954386,-3.09e-4 3.527344,-1.57491 3.527344,-3.529297 0,-1.954385 -1.572958,-3.527584 -3.527344,-3.527344 l -15.90625,0.002 h -0.0039 c -0.112895,0 -0.223861,0.0054 -0.333984,0.01563 -0.0019,1.85e-4 -0.0039,-1.87e-4 -0.0059,0 -0.111574,0.01059 -0.221837,0.02817 -0.330079,0.04883 -0.004,7.82e-4 -0.0077,0.0031 -0.01172,0.0039 -1.602036,0.311436 -2.806903,1.697626 -2.841792,3.384765 -5.48e-4,0.02476 -0.0039,0.04945 -0.0039,0.07422 z" /><path
     id="rect5-7"
     style="fill:#000000;stroke:none;stroke-width:0.999997;stroke-miterlimit:2;stroke-dasharray:none;paint-order:fill markers stroke"
     d="M 3.5273442,27.343522 C 1.5729582,27.343522 2.3627184e-7,28.91648 2.3627184e-7,30.870866 2.3627184e-7,32.825251 1.5729582,34.398209 3.5273442,34.398209 H 15.908203 l 0.002,12.382813 c 3.09e-4,1.954386 1.574909,3.527344 3.529297,3.527344 1.954384,0 3.527583,-1.572958 3.527343,-3.527344 l -0.002,-15.90625 v -0.0039 c 0,-0.112895 -0.0054,-0.223861 -0.01563,-0.333984 -1.85e-4,-0.0019 1.87e-4,-0.0039 0,-0.0059 -0.01059,-0.111574 -0.02817,-0.221837 -0.04883,-0.330079 -7.82e-4,-0.004 -0.0031,-0.0077 -0.0039,-0.01172 -0.311436,-1.602036 -1.697626,-2.806903 -3.384764,-2.841792 -0.02476,-5.48e-4 -0.04945,-0.0039 -0.07422,-0.0039 z" /><path
     id="rect5-5-1"
     style="fill:#000000;stroke:none;stroke-width:0.999997;stroke-miterlimit:2;stroke-dasharray:none;paint-order:fill markers stroke"
     d="m 22.967066,3.5273184 c 0,-1.954386 -1.572958,-3.527343976228 -3.527344,-3.527343976228 -1.954385,0 -3.527343,1.572957976228 -3.527343,3.527343976228 V 15.908178 l -12.3828125,0.002 c -1.954386,3.09e-4 -3.52734405,1.57491 -3.52734405,3.529297 0,1.954385 1.57295805,3.527584 3.52734405,3.527344 l 15.9062495,-0.002 h 0.0039 c 0.112895,0 0.223861,-0.0054 0.333984,-0.01563 0.0019,-1.85e-4 0.0039,1.87e-4 0.0059,0 0.111574,-0.01059 0.221837,-0.02817 0.330079,-0.04883 0.004,-7.82e-4 0.0077,-0.0031 0.01172,-0.0039 1.602036,-0.311436 2.806903,-1.697626 2.841792,-3.384765 5.48e-4,-0.02476 0.0039,-0.04945 0.0039,-0.07422 z" /></svg>
