<?xml version="1.0" encoding="UTF-8" standalone="no"?>
<svg
   version="1.1"
   viewBox="0 0 40 40"
   fill="none"
   stroke="none"
   stroke-linecap="square"
   stroke-miterlimit="10"
   id="svg4"
   sodipodi:docname="shrink.svg"
   inkscape:version="1.4 (86a8ad7, 2024-10-11)"
   width="40"
   height="40"
   xmlns:inkscape="http://www.inkscape.org/namespaces/inkscape"
   xmlns:sodipodi="http://sodipodi.sourceforge.net/DTD/sodipodi-0.dtd"
   xmlns="http://www.w3.org/2000/svg"
   xmlns:svg="http://www.w3.org/2000/svg">
  <defs
     id="defs4" />
  <sodipodi:namedview
     id="namedview4"
     pagecolor="#ffffff"
     bordercolor="#000000"
     borderopacity="0.25"
     inkscape:showpageshadow="2"
     inkscape:pageopacity="0.0"
     inkscape:pagecheckerboard="0"
     inkscape:deskcolor="#d1d1d1"
     inkscape:zoom="13.833333"
     inkscape:cx="17.60241"
     inkscape:cy="17.638555"
     inkscape:window-width="1920"
     inkscape:window-height="1010"
     inkscape:window-x="-6"
     inkscape:window-y="-6"
     inkscape:window-maximized="1"
     inkscape:current-layer="svg4" />
  <path
     fill="#000000"
     d="m 1.0276096,38.906835 v 0 c -1.37014612,-1.365412 -1.37014612,-3.579179 0,-4.944592 L 34.010655,1.0931626 c 0.657965,-0.65569292 1.550361,-1.02405765 2.480867,-1.02405765 0.930506,0 1.822898,0.36836473 2.480869,1.02405765 v 0 0 c 1.370144,1.3654119 1.370144,3.5791794 0,4.9445914 L 5.9893448,38.906835 v 0 c -1.3701462,1.365412 -3.5915892,1.365412 -4.9617352,0 z"
     fill-rule="evenodd"
     id="path3"
     style="stroke-width:0.999995" />
  <path
     fill="#000000"
     d="m 1.0633059,1.0220178 v 0 c 1.370146,-1.36541083 3.5884531,-1.36229473 4.9547299,0.007 L 38.943697,34.026431 c 0.656111,0.657535 1.023969,1.548619 1.022655,2.477215 -0.0014,0.928597 -0.371694,1.818642 -1.029658,2.474334 v 0 0 c -1.370146,1.365411 -3.588455,1.362296 -4.954732,-0.007 L 1.0563007,5.9735722 v 0 C -0.30997505,4.6043156 -0.30684022,2.3874309 1.0633207,1.022019 Z"
     fill-rule="evenodd"
     id="path4"
     style="stroke-width:0.999995" />
</svg>
