<?xml version="1.0" encoding="UTF-8" standalone="no"?>
<svg
   version="1.1"
   viewBox="0 0 40 40"
   fill="none"
   stroke="none"
   stroke-linecap="square"
   stroke-miterlimit="10"
   id="svg4"
   width="40"
   height="40"
   xmlns="http://www.w3.org/2000/svg"
   xmlns:svg="http://www.w3.org/2000/svg">
  <defs
     id="defs4" />
  <path
     id="path3"
     style="fill:#000000;stroke:none;stroke-width:0.999995"
     d="M 3.5429688,0 C 2.6463391,-0.00126451 1.747573,0.33877896 1.0625,1.0214844 -0.30766092,2.3868963 -0.30963513,4.6033996 1.0566406,5.9726562 L 15.044922,19.992188 1.0273438,33.962891 c -1.37014617,1.365413 -1.37014617,3.577947 0,4.943359 1.370146,1.365412 3.5927444,1.365412 4.9628906,0 L 19.994141,24.951172 33.982422,38.970703 c 1.366277,1.369296 3.584932,1.373224 4.955078,0.0078 0.657964,-0.655692 1.027897,-1.546013 1.029297,-2.47461 0.0013,-0.928596 -0.367327,-1.819027 -1.023438,-2.476562 L 24.955078,20.007812 38.972656,6.0371094 c 1.370144,-1.365412 1.370144,-3.5779475 0,-4.9433594 -0.657971,-0.65569292 -1.549962,-1.02539063 -2.480468,-1.02539063 -0.930507,0 -1.824457,0.36969771 -2.482422,1.02539063 L 20.005859,15.048828 6.0175781,1.0292969 C 5.3344397,0.34464951 4.4395984,0.00126451 3.5429688,0 Z" />
</svg>
