<?xml version="1.0" encoding="UTF-8" standalone="no"?>
<svg
   version="1.1"
   viewBox="0 0 40 40"
   fill="none"
   stroke="none"
   stroke-linecap="square"
   stroke-miterlimit="10"
   id="svg4"
   sodipodi:docname="shrink.svg"
   inkscape:version="1.4 (86a8ad7, 2024-10-11)"
   width="40"
   height="40"
   xmlns:inkscape="http://www.inkscape.org/namespaces/inkscape"
   xmlns:sodipodi="http://sodipodi.sourceforge.net/DTD/sodipodi-0.dtd"
   xmlns="http://www.w3.org/2000/svg"
   xmlns:svg="http://www.w3.org/2000/svg">
  <defs
     id="defs4" />
  <sodipodi:namedview
     id="namedview4"
     pagecolor="#ffffff"
     bordercolor="#000000"
     borderopacity="0.25"
     inkscape:showpageshadow="2"
     inkscape:pageopacity="0.0"
     inkscape:pagecheckerboard="0"
     inkscape:deskcolor="#d1d1d1"
     inkscape:zoom="13.833333"
     inkscape:cx="17.530121"
     inkscape:cy="17.638555"
     inkscape:window-width="1920"
     inkscape:window-height="1010"
     inkscape:window-x="-6"
     inkscape:window-y="-6"
     inkscape:window-maximized="1"
     inkscape:current-layer="svg4" />
  <path
     id="path3"
     style="stroke-width:0.999995;fill:#000000;stroke:none"
     d="M 3.5429688 0 C 2.6463391 -0.0012645125 1.747573 0.33877896 1.0625 1.0214844 C -0.30766092 2.3868963 -0.30963513 4.6033996 1.0566406 5.9726562 L 15.044922 19.992188 L 1.0273438 33.962891 C -0.34280237 35.328304 -0.34280237 37.540838 1.0273438 38.90625 C 2.3974898 40.271662 4.6200882 40.271662 5.9902344 38.90625 L 19.994141 24.951172 L 33.982422 38.970703 C 35.348699 40.339999 37.567354 40.343927 38.9375 38.978516 C 39.595464 38.322824 39.965397 37.432503 39.966797 36.503906 C 39.968111 35.57531 39.59947 34.684879 38.943359 34.027344 L 24.955078 20.007812 L 38.972656 6.0371094 C 40.3428 4.6716974 40.3428 2.4591619 38.972656 1.09375 C 38.314685 0.43805708 37.422694 0.068359375 36.492188 0.068359375 C 35.561681 0.068359375 34.667731 0.43805708 34.009766 1.09375 L 20.005859 15.048828 L 6.0175781 1.0292969 C 5.3344397 0.34464951 4.4395984 0.0012645125 3.5429688 0 z " />
</svg>
